<?xml version="1.0" encoding="UTF-8"?>
<svg width="493.18" height="522.96" version="1.1" xmlns="http://www.w3.org/2000/svg" xmlns:cc="http://creativecommons.org/ns#" xmlns:dc="http://purl.org/dc/elements/1.1/" xmlns:rdf="http://www.w3.org/1999/02/22-rdf-syntax-ns#" xmlns:xlink="http://www.w3.org/1999/xlink">
 <defs>
  <linearGradient id="linearGradient6001">
   <stop stop-color="#fff" offset="0"/>
   <stop stop-color="#fff" stop-opacity="0" offset="1"/>
  </linearGradient>
  <linearGradient id="linearGradient4114">
   <stop offset="0"/>
   <stop stop-opacity="0" offset="1"/>
  </linearGradient>
  <radialGradient id="radialGradient3968" cx="18.248" cy="15.716" r="29.993" gradientTransform="scale(.99999 1)" gradientUnits="userSpaceOnUse">
   <stop stop-color="#d3e9ff" offset="0"/>
   <stop stop-color="#d3e9ff" offset=".15517"/>
   <stop stop-color="#4074ae" offset=".75"/>
   <stop stop-color="#36486c" offset="1"/>
  </radialGradient>
  <radialGradient id="radialGradient4120" cx="15.116" cy="63.965" r="12.289" gradientTransform="scale(1.644 .60828)" gradientUnits="userSpaceOnUse" xlink:href="#linearGradient4114"/>
  <radialGradient id="radialGradient4132" cx="15.601" cy="12.142" r="43.527" gradientTransform="scale(.99999 1)" gradientUnits="userSpaceOnUse">
   <stop stop-color="#fff" offset="0"/>
   <stop stop-color="#fff" stop-opacity=".16495" offset="1"/>
  </radialGradient>
  <radialGradient id="radialGradient5983" cx="12.071" cy="12.493" r="6.7175" gradientUnits="userSpaceOnUse" xlink:href="#linearGradient6001"/>
  <linearGradient id="linearGradient6007" x1="-25.176" x2="-22.252" y1="30.057" y2="21.042" gradientUnits="userSpaceOnUse" xlink:href="#linearGradient6001"/>
  <linearGradient id="linearGradient6011" x1="-25.176" x2="-22.114" y1="30.057" y2="22.662" gradientUnits="userSpaceOnUse" xlink:href="#linearGradient6001"/>
  <linearGradient id="linearGradient6015" x1="-22.823" x2="-22.114" y1="28.338" y2="22.662" gradientUnits="userSpaceOnUse" xlink:href="#linearGradient6001"/>
  <linearGradient id="linearGradient6019" x1="-21.659" x2="-21.962" y1="15.649" y2="21.336" gradientUnits="userSpaceOnUse" xlink:href="#linearGradient6001"/>
  <radialGradient id="radialGradient4467" cx="83.066" cy="81.761" r="60.137" gradientTransform="matrix(1.146 7.182e-5 -7.1803e-5 1.1457 -12.93 -8.5886)" gradientUnits="userSpaceOnUse" xlink:href="#linearGradient2455"/>
  <linearGradient id="linearGradient2455">
   <stop offset="0"/>
   <stop stop-color="#202020" offset=".79709"/>
   <stop stop-color="#e7e7e7" offset=".85546"/>
   <stop stop-color="#f8f6f8" offset=".93506"/>
   <stop stop-color="#c0c0c0" offset=".96004"/>
   <stop stop-color="#393939" offset="1"/>
  </linearGradient>
  <linearGradient id="linearGradient9477" x1="70.015" x2="70.714" y1="234" y2="81.013" gradientUnits="userSpaceOnUse" xlink:href="#linearGradient4114"/>
  <radialGradient id="radialGradient4471" cx="83.066" cy="81.761" r="60.137" gradientTransform="matrix(1.146 7.182e-5 -7.1803e-5 1.1457 -12.93 -8.5886)" gradientUnits="userSpaceOnUse" xlink:href="#linearGradient2630"/>
  <linearGradient id="linearGradient2630">
   <stop offset="0"/>
   <stop stop-color="#535353" stop-opacity=".021661" offset=".79709"/>
   <stop stop-color="#d7d7d7" stop-opacity=".73333" offset=".89"/>
   <stop stop-color="#f8f6f8" offset=".93591"/>
   <stop stop-color="#b8b8b8" stop-opacity=".6426" offset=".9595"/>
   <stop stop-color="#4c4c4c" stop-opacity="0" offset="1"/>
  </linearGradient>
  <linearGradient id="linearGradient9479" x1="96.501" x2="86.659" y1="108.18" y2="46.902" gradientTransform="matrix(3.3246 -3.768 3.4122 3.7607 -394.54 140.53)" gradientUnits="userSpaceOnUse" xlink:href="#linearGradient4114"/>
  <linearGradient id="linearGradient9481" x1="15.926" x2="60.493" y1="35.015" y2="89.004" gradientUnits="userSpaceOnUse" xlink:href="#linearGradient6001"/>
  <linearGradient id="linearGradient9483" x1="-27.248" x2="-10.122" y1="21.989" y2="21.949" gradientUnits="userSpaceOnUse" xlink:href="#linearGradient2334"/>
  <linearGradient id="linearGradient2334">
   <stop stop-color="#323232" offset="0"/>
   <stop stop-color="#dfe1e1" offset=".076923"/>
   <stop stop-color="#e2dcdc" offset=".5"/>
   <stop stop-color="#fff" offset=".78202"/>
   <stop stop-color="#dfd9df" offset=".90059"/>
   <stop stop-color="#3a3a3a" offset="1"/>
  </linearGradient>
  <radialGradient id="radialGradient4499" cx="-22.274" cy="25.119" r="1.0607" fx="-22.741" fy="25.096" gradientTransform="matrix(1 0 0 19.253 0 -458.51)" gradientUnits="userSpaceOnUse" xlink:href="#linearGradient6001"/>
  <linearGradient id="linearGradient9485" x1="53.469" x2="74.656" y1="4.9119" y2="4.9119" gradientTransform="matrix(.70516 -.014841 .010055 .71136 -57.294 53.472)" gradientUnits="userSpaceOnUse" xlink:href="#linearGradient2334"/>
  <linearGradient id="linearGradient9487" x1="48.499" x2="48.733" y1=".8115" y2="2.3657" gradientTransform="matrix(1.8533 .007468 .0051645 1.1151 -102.87 50.238)" gradientUnits="userSpaceOnUse" xlink:href="#linearGradient6001"/>
  <radialGradient id="radialGradient4505" cx="49.012" cy="2.6743" r="1.7246" gradientTransform="matrix(1.2291 0 0 .13567 -77.821 53.244)" gradientUnits="userSpaceOnUse" xlink:href="#linearGradient3273"/>
  <linearGradient id="linearGradient3273">
   <stop stop-color="#fff" stop-opacity=".55036" offset="0"/>
   <stop stop-color="#fff" stop-opacity="0" offset="1"/>
  </linearGradient>
  <radialGradient id="radialGradient4507" cx="49.012" cy="2.6743" r="1.7246" gradientTransform="matrix(1.2195 0 0 .13567 -52.79 53.244)" gradientUnits="userSpaceOnUse" xlink:href="#linearGradient3259"/>
  <linearGradient id="linearGradient3259">
   <stop stop-color="#fff" stop-opacity=".55036" offset="0"/>
   <stop stop-opacity="0" offset="1"/>
  </linearGradient>
  <radialGradient id="radialGradient4509" cx="49.012" cy="2.6743" r="1.7246" gradientTransform="matrix(4.2545 0 0 .13571 -221.77 53.251)" gradientUnits="userSpaceOnUse" xlink:href="#linearGradient3207"/>
  <linearGradient id="linearGradient3207">
   <stop stop-color="#fff" offset="0"/>
   <stop stop-color="#252525" stop-opacity="0" offset="1"/>
  </linearGradient>
  <linearGradient id="linearGradient9489" x1="48.499" x2="48.733" y1=".8115" y2="2.3657" gradientTransform="matrix(1.8533 .0057931 .027593 -1.115 -102.98 61.161)" gradientUnits="userSpaceOnUse" xlink:href="#linearGradient6001"/>
  <radialGradient id="radialGradient4513" cx="49.012" cy="2.6743" r="1.7246" gradientTransform="matrix(1.2291 0 0 .13569 -76.175 -58.906)" gradientUnits="userSpaceOnUse" xlink:href="#linearGradient3273"/>
  <radialGradient id="radialGradient4515" cx="49.012" cy="2.6743" r="1.7246" gradientTransform="matrix(1.2195 0 0 .13569 -54.438 -58.906)" gradientUnits="userSpaceOnUse" xlink:href="#linearGradient3259"/>
  <radialGradient id="radialGradient4517" cx="49.012" cy="2.6743" r="1.7246" gradientTransform="matrix(4.2544 0 0 .13576 -218.11 -58.945)" gradientUnits="userSpaceOnUse" xlink:href="#linearGradient3207"/>
  <linearGradient id="linearGradient9491" x1="71.765" x2="73.596" y1="4.8432" y2="4.8432" gradientTransform="matrix(.70524 0 0 .71151 -56.433 52.492)" gradientUnits="userSpaceOnUse" spreadMethod="reflect" xlink:href="#linearGradient3064"/>
  <linearGradient id="linearGradient3064">
   <stop offset="0"/>
   <stop stop-opacity="0" offset=".5"/>
   <stop stop-opacity="0" offset="1"/>
  </linearGradient>
  <linearGradient id="linearGradient4597" x1="137.99" x2="141.66" y1="25.762" y2="13.012" gradientTransform="matrix(.50277 -.50725 .50277 .50725 -86.169 122.85)" gradientUnits="userSpaceOnUse" xlink:href="#linearGradient4114"/>
  <linearGradient id="linearGradient9493" x1="99.867" x2="104.22" y1="33.034" y2="24.656" gradientTransform="matrix(.50277 -.50725 .50277 .50725 -73.878 98.585)" gradientUnits="userSpaceOnUse" xlink:href="#linearGradient4114"/>
  <linearGradient id="linearGradient9495" x1="-12.069" x2="-25.188" y1="25.741" y2="25.658" gradientTransform="matrix(.43848 0 0 .44138 73.986 -126.28)" gradientUnits="userSpaceOnUse" xlink:href="#linearGradient2334"/>
  <linearGradient id="linearGradient9497" x1="147.29" x2="143.51" y1="91.802" y2="79.986" gradientTransform="matrix(.45846 0 0 .53774 50.162 23.909)" gradientUnits="userSpaceOnUse" xlink:href="#linearGradient4114"/>
  <linearGradient id="linearGradient9499" x1="48.499" x2="48.733" y1=".8115" y2="2.3657" gradientTransform="matrix(3.4486 .0044982 .028685 2.1355 -187.15 6.3979)" gradientUnits="userSpaceOnUse" xlink:href="#linearGradient6001"/>
  <radialGradient id="radialGradient8890" cx="49.012" cy="2.6743" r="1.7246" gradientTransform="matrix(7.9165 0 0 .25993 -406.47 11.594)" gradientUnits="userSpaceOnUse" xlink:href="#linearGradient3207"/>
  <radialGradient id="radialGradient8892" cx="-24.922" cy="15.047" r="4.4219" fx="-26.866" fy="14.944" gradientTransform="matrix(1 0 0 1.3356 -1.9881 -4.7516)" gradientUnits="userSpaceOnUse" xlink:href="#linearGradient6001"/>
  <linearGradient id="linearGradient6877" x1="194.71" x2="228.05" y1="205.27" y2="205.77" gradientTransform="rotate(49.569 321.84 160.9)" gradientUnits="userSpaceOnUse">
   <stop stop-color="#fff" stop-opacity="0" offset="0"/>
   <stop stop-color="#ccc" offset=".37378"/>
   <stop stop-color="#ccc" offset=".72021"/>
   <stop stop-color="#fff" stop-opacity="0" offset="1"/>
  </linearGradient>
  <filter id="filter6960" x="-.023992" y="-.024008" width="1.048" height="1.048" color-interpolation-filters="sRGB">
   <feGaussianBlur stdDeviation="2.8979006"/>
  </filter>
  <radialGradient id="radialGradient8778" cx="59.068" cy="128.89" r="62.35" gradientTransform="matrix(.55284 -.55639 .53566 .55406 -56.517 24.801)" gradientUnits="userSpaceOnUse">
   <stop stop-opacity="0" offset="0"/>
   <stop stop-opacity="0" offset=".78571"/>
   <stop offset="1"/>
  </radialGradient>
  <radialGradient id="radialGradient8995" cx="94.148" cy="204.45" r="36.968" gradientTransform="matrix(.89465 0 0 .085185 -44.229 82.552)" gradientUnits="userSpaceOnUse">
   <stop stop-color="#b3b3b3" offset="0"/>
   <stop stop-color="#ccc" stop-opacity="0" offset="1"/>
  </radialGradient>
  <filter id="filter9995" x="-.16022" y="-.020278" width="1.3204" height="1.0406" color-interpolation-filters="sRGB">
   <feGaussianBlur stdDeviation="1.0983984"/>
  </filter>
  <linearGradient id="linearGradient8981" x1="-16.368" x2="-15.014" y1="158.58" y2="168.57" gradientTransform="translate(11.105 -121.89)" gradientUnits="userSpaceOnUse" xlink:href="#linearGradient6001"/>
  <filter id="filter6390" x="-.10142" y="-.01361" width="1.2028" height="1.0272" color-interpolation-filters="sRGB">
   <feGaussianBlur stdDeviation="1.0564356"/>
  </filter>
  <radialGradient id="radialGradient7316" cx="20.799" cy="140.66" r="1.9844" gradientTransform="matrix(1.1645 0 0 1.3289 -3.4368 -46.28)" gradientUnits="userSpaceOnUse">
   <stop stop-color="#fff" offset="0"/>
   <stop stop-color="#4d4d4d" offset="1"/>
  </radialGradient>
  <filter id="filter3272" x="-.0028997" y="-.0021793" width="1.0058" height="1.0044" color-interpolation-filters="sRGB">
   <feGaussianBlur stdDeviation="0.093634618"/>
  </filter>
 </defs>
 <metadata>
  <rdf:RDF>
   <cc:Work rdf:about="">
    <dc:format>image/svg+xml</dc:format>
    <dc:type rdf:resource="http://purl.org/dc/dcmitype/StillImage"/>
    <dc:title/>
    <dc:creator>
     <cc:Agent>
      <dc:title>Jakub Steiner</dc:title>
     </cc:Agent>
    </dc:creator>
    <dc:contributor>
     <cc:Agent>
      <dc:title>Tuomas Kuosmanen</dc:title>
     </cc:Agent>
    </dc:contributor>
    <cc:license rdf:resource="http://creativecommons.org/publicdomain/zero/1.0/"/>
    <dc:source>http://jimmac.musichall.cz</dc:source>
    <dc:subject>
     <rdf:Bag>
      <rdf:li>internet</rdf:li>
      <rdf:li>tools</rdf:li>
      <rdf:li>applications</rdf:li>
      <rdf:li>category</rdf:li>
     </rdf:Bag>
    </dc:subject>
   </cc:Work>
   <cc:License rdf:about="http://creativecommons.org/publicdomain/zero/1.0/">
    <cc:permits rdf:resource="http://creativecommons.org/ns#Reproduction"/>
    <cc:permits rdf:resource="http://creativecommons.org/ns#Distribution"/>
    <cc:permits rdf:resource="http://creativecommons.org/ns#DerivativeWorks"/>
   </cc:License>
  </rdf:RDF>
 </metadata>
 <g transform="translate(-4.6218 -3.6515)">
  <g transform="matrix(12.397 0 0 12.171 -53.382 -40.106)">
   <path d="m43.96 23.485c0 10.71-8.6821 19.392-19.39 19.392-10.709 0-19.391-8.6821-19.391-19.392 0-10.709 8.6816-19.39 19.391-19.39 10.708 0 19.39 8.6811 19.39 19.39z" fill="url(#radialGradient3968)" stroke="#39396c"/>
   <g transform="matrix(.98237 0 0 .98237 .12108 .23291)" fill="#204a87" fill-opacity=".71345">
    <g fill="#204a87">
     <path d="m44.071 20.714v0l-0.5449 0.6172c-0.334-0.3936-0.709-0.7246-1.0898-1.0703l-0.8359 0.123-0.7637-0.8633v1.0684l0.6543 0.4951 0.4355 0.4932 0.582-0.6582c0.1465 0.2744 0.291 0.5488 0.4365 0.8232v0.8223l-0.6553 0.7402-1.1992 0.8232-0.9082 0.9063-0.582-0.6602 0.291-0.7402-0.5811-0.6582-0.9814-2.0977-0.8359-0.9453-0.2188 0.2461 0.3281 1.1934 0.6172 0.6992c0.3525 1.0176 0.7012 1.9902 1.1641 2.9629 0.7178 0 1.3945-0.0762 2.1074-0.166v0.5762l-0.8721 2.1392-0.7998 0.9043-0.6543 1.4004v2.3027l0.2188 0.9063-0.3633 0.4102-0.8008 0.4941-0.8359 0.6992 0.6914 0.7813-0.9453 0.8242 0.1816 0.5332-1.418 1.6055h-0.9443l-0.7998 0.4941h-0.5098v-0.6582l-0.2168-1.3184c-0.2813-0.8262-0.5742-1.6465-0.8721-2.4668 0-0.6055 0.0361-1.2051 0.0723-1.8105l0.3643-0.8223-0.5098-0.9883 0.0371-1.3574-0.6914-0.7813 0.3457-1.1309-0.5625-0.6382h-0.9824l-0.3271-0.3701-0.9814 0.6177-0.3994-0.4536-0.9092 0.7817c-0.6172-0.6997-1.2354-1.3989-1.8535-2.0981l-0.7266-1.7285 0.6543-0.9863-0.3633-0.4111 0.7988-1.8936c0.6563-0.8164 1.3418-1.5996 2.0352-2.3857l1.2363-0.3291 1.3809-0.1641 0.9453 0.2471 1.3447 1.3564 0.4727-0.5342 0.6533-0.082 1.2363 0.4111h0.9453l0.6543-0.5762 0.291-0.4111-0.6553-0.4111-1.0908-0.082c-0.3027-0.4199-0.584-0.8613-0.9434-1.2344l-0.3643 0.1641-0.1455 1.0703-0.6543-0.7402-0.1445-0.8242-0.7266-0.5742h-0.292l0.7275 0.8223-0.291 0.7402-0.5811 0.1641 0.3633-0.7402-0.6553-0.3281-0.5801-0.6582-1.0918 0.2461-0.1445 0.3281-0.6543 0.4121-0.3633 0.9053-0.9082 0.4521-0.4004-0.4521h-0.4355v-1.4814l0.9453-0.4941h0.7266l-0.1465-0.5752-0.5801-0.5762 0.9805-0.2061 0.5449-0.6162 0.4355-0.7412h0.8008l-0.2188-0.5752 0.5098-0.3291v0.6582l1.0898 0.2461 1.0898-0.9043 0.0732-0.4121 0.9443-0.6577c-0.3418 0.0425-0.6836 0.0737-1.0176 0.1646v-0.7411l0.3633-0.8228h-0.3633l-0.7984 0.7402-0.2188 0.4116 0.2188 0.5767-0.3643 0.9863-0.5811-0.3291-0.5078-0.5752-0.8008 0.5752-0.291-1.3159 1.3809-0.9048v-0.4941l0.873-0.5757 1.3809-0.3296 0.9453 0.3296 1.7441 0.3291-0.4355 0.4932h-0.9453l0.9453 0.9873 0.7266-0.8223 0.2207-0.3618s2.7871 2.498 4.3799 5.2305c1.5928 2.7334 2.3408 5.9551 2.3408 6.6094z"/>
     <path d="m26.07 9.2363-0.0732 0.4932 0.5098 0.3291 0.8711-0.5757-0.4355-0.4937-0.582 0.3296-0.29-0.0825"/>
     <path d="m26.87 5.8633-1.8906-0.7407-2.1797 0.2466-2.6904 0.7402-0.5088 0.4941 1.6719 1.1514v0.6582l-0.6543 0.6582 0.873 1.729 0.5801-0.3301 0.7285-1.1514c1.123-0.3472 2.1299-0.7407 3.1973-1.2344l0.873-2.2212"/>
     <path d="m28.833 12.775-0.291-0.7412-0.5098 0.165 0.1465 0.9043 0.6543-0.3281"/>
     <path d="m29.123 12.609-0.1455 0.9883 0.7998-0.165 0.5811-0.5752-0.5088-0.4941c-0.1709-0.4551-0.3672-0.8799-0.5811-1.3164h-0.4355v0.4932l0.29 0.3291v0.7402"/>
     <path d="m18.365 28.242-0.582-1.1523-1.0903-0.2466-0.5815-1.5625-1.4536 0.1641-1.2354-0.9043-1.3091 1.1514v0.1816c-0.396-0.1143-0.8828-0.1299-1.2354-0.3467l-0.291-0.8223v-0.9053l-0.8721 0.082c0.0728-0.5762 0.145-1.1514 0.2183-1.7275h-0.5093l-0.5083 0.6582-0.5093 0.2461-0.7271-0.4102-0.0728-0.9053 0.1455-0.9873 1.0908-0.8223h0.8721l0.145-0.4941 1.0903 0.2461 0.7998 0.9883 0.1455-1.6465 1.3813-1.1514 0.5088-1.2344 1.0176-0.4111 0.5815-0.8223 1.3081-0.248 0.6548-0.9863h-1.9629l1.2358-0.5762h0.8716l1.2363-0.4121 0.1455-0.4922-0.4365-0.4121-0.5088-0.165 0.1455-0.4932-0.3633-0.7402-0.8726 0.3281 0.1455-0.6577-1.0176-0.5762-0.7993 1.3979 0.0723 0.4941-0.7993 0.3301-0.5093 1.0693-0.2178-0.9873-1.3813-0.5762-0.2183-0.7402 1.8174-1.0703 0.7998-0.7402 0.0728-0.9048-0.436-0.2471-0.5815-0.0825-0.3633 0.9053s-0.6079 0.1191-0.7642 0.1577c-1.9961 1.8394-6.0293 5.8101-6.9663 13.306 0.0371 0.1738 0.6792 1.1816 0.6792 1.1816l1.5264 0.9043 1.5264 0.4121 0.6548 0.8232 1.0171 0.7402 0.5815-0.082 0.436 0.1963v0.1328l-0.5811 1.563-0.4365 0.6582 0.1455 0.3301-0.3633 1.2324 1.3086 2.3867 1.3081 1.1523 0.582 0.8223-0.0732 1.7285 0.4365 0.9863-0.4365 1.8926s-0.0342-0.0117 0.0215 0.1777c0.0562 0.1895 2.3291 1.4512 2.4736 1.3438 0.144-0.1094 0.2671-0.2051 0.2671-0.2051l-0.145-0.4102 0.5811-0.5762 0.2183-0.5762 0.9453-0.3301 0.7266-1.8105-0.2178-0.4922 0.5078-0.7402 1.0908-0.248 0.582-1.3164-0.1455-1.6445 0.8721-1.2344 0.1455-1.2344c-1.1934-0.5918-2.377-1.2012-3.5615-1.8105"/>
     <path d="m16.766 9.5649 0.7266 0.4937h0.582v-0.5757l-0.7266-0.3291-0.582 0.4111"/>
     <path d="m14.876 8.9072-0.3638 0.9048h0.7271l0.3638-0.8228c0.3135-0.2217 0.6255-0.4448 0.9448-0.6582l0.7271 0.2471c0.4844 0.3291 0.9688 0.6582 1.4536 0.9868l0.7275-0.6577-0.8003-0.3291-0.3638-0.7407-1.3809-0.1646-0.0728-0.4116-0.6543 0.165-0.2904 0.5758-0.3638-0.7407-0.145 0.3291 0.0728 0.8228-0.5816 0.494"/>
     <g opacity=".75"></g>
     <g opacity=".75"></g>
     <path d="m17.492 6.8496 0.3638-0.3286 0.7271-0.1646c0.498-0.2422 0.998-0.4053 1.5264-0.5762l-0.29-0.4937-0.9385 0.1348-0.4434 0.4419-0.731 0.106-0.6499 0.3052-0.3159 0.1528-0.1929 0.2583 0.9443 0.1641"/>
     <path d="m18.728 14.666 0.4365-0.6582-0.6548-0.4932 0.2183 1.1514"/>
    </g>
   </g>
   <g fill="none">
    <path d="m42.975 23.486c0 10.166-8.2412 18.407-18.406 18.407-10.165 0-18.406-8.2412-18.406-18.407 0-10.165 8.2407-18.406 18.406-18.406 10.164 0 18.406 8.2402 18.406 18.406z" opacity=".3956" stroke="url(#radialGradient4132)"/>
   </g>
   <g transform="matrix(-1.0458 .76725 .76725 1.0458 35.617 -22.144)" fill-rule="evenodd"></g>
   <g transform="matrix(-.80628 .59154 .59154 .80628 12.386 -18.029)" fill-rule="evenodd"></g>
   <g transform="matrix(-.80628 .59154 .59154 .80628 13.499 -31.5)" fill-rule="evenodd"></g>
   <g transform="matrix(-.87023 .63857 .63846 .87038 25.205 -35.313)" fill-rule="evenodd"></g>
  </g>
  <g transform="matrix(3.7795 0 0 3.7795 9.6646 136.03)" filter="url(#filter3272)">
   <g transform="matrix(.63413 0 0 .63413 47.643 -26.459)">
    <g transform="matrix(.14926 .00014725 -.0017378 .13475 -24.179 39.531)">
     <g>
      <path d="m82.253 16.192c-37.957 0-68.92 30.931-68.92 68.888 0 37.957 30.963 68.92 68.92 68.92 37.957 0 68.92-30.963 68.92-68.92 0-37.957-30.963-68.888-68.92-68.888zm0 14.996c29.831 0 53.891 24.061 53.891 53.891 0 29.831-24.061 53.891-53.891 53.891-29.831 0-53.891-24.061-53.891-53.891 0-29.831 24.061-53.891 53.891-53.891z" fill="url(#radialGradient4467)"/>
      <path d="m13.333 85.08c0 37.957 30.963 68.92 68.92 68.92 37.957 0 68.92-30.963 68.92-68.92 0-37.957-137.84-37.957-137.84 0zm122.81 0c0 29.831-24.061 53.891-53.891 53.891-29.831 0-53.891-24.061-53.891-53.891 0-29.831 107.78-29.831 107.78 0z" fill="url(#linearGradient9477)"/>
      <path d="m82.253 16.192c-37.957 0-68.92 30.931-68.92 68.888 0 37.957 30.963 68.92 68.92 68.92 37.957 0 68.92-30.963 68.92-68.92 0-37.957-30.963-68.888-68.92-68.888zm0 14.996c29.831 0 53.891 24.061 53.891 53.891 0 29.831-24.061 53.891-53.891 53.891-29.831 0-53.891-24.061-53.891-53.891 0-29.831 24.061-53.891 53.891-53.891z" fill="url(#radialGradient4471)"/>
      <path d="m32.92 44.249c-7.1912 9.1576-11.296 20.719-11.296 33.304-1.7e-5 15.789 6.6423 30.016 17.412 39.86-6.7156-8.9878-10.587-20.22-10.587-32.339 1e-5 -29.831 23.964-53.819 53.794-53.819 13.983-1e-6 26.704 5.2695 36.268 13.959-9.8208-13.067-25.435-21.481-43.092-21.481-17.246 1.7e-5 -32.643 7.9659-42.498 20.515zm-4.8182 83.41c12.637 16.066 32.257 26.292 54.201 26.292 37.957-1e-5 68.884-30.818 68.884-68.775 2e-5 -19.401-8.1257-36.965-21.103-49.502 8.9154 11.61 14.278 26.264 14.278 41.981 0 37.957-30.926 68.775-68.883 68.775-18.271 0-35.02-7.0945-47.377-18.77z" fill="url(#linearGradient9479)"/>
      <path transform="matrix(3.3246 -3.768 3.4122 3.7607 -327.86 438.61)" d="m106.41 0.9375c-3.0632 0.099052-6.0156 1.2292-8.25 3.4062-2.6334 2.5658-3.7946 6.1133-3.5312 9.7188 0.22016-2.8878 1.3896-5.6321 3.5312-7.7188 5.1072-4.976 13.871-4.421 19.5 1.2188 2.7118 2.7171 4.2082 6.1317 4.4688 9.5 0.2865-3.9826-1.2146-8.2395-4.4688-11.5-3.1662-3.1724-7.3116-4.7524-11.25-4.625zm-8.7812 13.5c-0.30116 3.1717 0.88209 6.5957 3.5 9.2188 4.4237 4.4323 11.236 4.8482 15.25 0.9375 2.125-2.0704 3.023-4.9212 2.75-7.8125-0.21347 2.1761-1.1194 4.2238-2.75 5.8125-4.0138 3.9107-10.826 3.4948-15.25-0.9375-2.0736-2.0776-3.251-4.6586-3.5-7.2188z" fill="url(#linearGradient9481)"/>
     </g>
    </g>
    <g transform="matrix(.53742 .0013396 -.0065347 .6947 -2.056 44.577)">
     <rect x="-26.71" y="15.764" width="16.589" height="12.371" fill="url(#linearGradient9483)"/>
     <path transform="matrix(4.1667 0 0 1.3382 73.009 -10.529)" d="m-21.213 25.119c0 3.3177 0.18567 3.6993-0.9257 3.6993-1.3489 0-1.1956 2.2926-1.1956-1.0252s0.47518-8.6845 1.0607-8.6845c0.58548 0 1.0607 2.6927 1.0607 6.0104z" fill="url(#radialGradient4499)" opacity=".36475"/>
    </g>
    <g>
     <path d="m-13.055 51.829c-3.6446 0.12534-5.8744 1.003-6.3273 1.4896-0.0034 0.0028-0.01847 0.01976-0.02183 0.02258-0.0034 0.0028 0.0031 0.01976 3.08e-4 0.02258-0.0076 0.01129-0.01651 0.0319-0.02155 0.04489-0.0012 0.0028-0.02043 0.01976-0.02182 0.02258-0.0011 0.0028 1e-3 0.01976 3.05e-4 0.02258-2.21e-4 0.0019 3.07e-4 0.01976 3.05e-4 0.02258l-0.06089 5.049c-1.06e-4 0.0028 1.99e-4 0.01976 3.13e-4 0.02259 9.46e-4 0.0056 0.02071 0.01411 0.02238 0.02258 0.0011 0.0056-9.87e-4 0.01694 3.08e-4 0.02259 0.0048 0.01411 0.01539 0.03275 0.02267 0.04404 0.34789 0.49347 2.6918 1.4632 6.6792 1.5717 0.21361 0.0056 0.43837 0.0085 0.6614 0.0085 4.2458 0.01412 6.7958-0.85163 7.3419-1.4443 0.0028-0.0028 0.01903-0.01976 0.02183-0.02258 0.0298-0.04065 0.05221-0.09683 0.06422-0.13466 9.96e-4 -0.0028-9.87e-4 -0.01976-3.1e-4 -0.02259-3.67e-4 -0.0056-4.03e-4 -0.01694-3.05e-4 -0.02258 0.0031-0.12901 0.06181-4.8977 0.06119-5.0267-1.59e-4 -0.0056-5.09e-4 -0.03614-6.15e-4 -0.04432-0.01175-0.04573-0.05165-0.10502-0.09035-0.15386-0.0081-0.0085-0.01371-0.03444-0.02267-0.04404-0.0095-0.0085-0.0343-0.03388-0.04443-0.04376-0.02714-0.02541-0.0781-0.06154-0.11145-0.08667-0.80222-0.58144-3.2608-1.324-7.1388-1.3396-0.22301-9.03e-4 -0.44769-0.01129-0.6614-0.0085-0.12466 0.0025-0.2311 0.0028-0.35258 0.0085z" fill="url(#linearGradient9485)" fill-rule="evenodd"/>
     <path d="m-13.339 51.951c2.8755-0.1197 5.7144 0.32236 5.9373 0.39153 0.2229 0.06916-3.2463-0.26791-5.4819-0.07453-2.2185 0.19169-4.184 1.2226-4.4284 1.2321-0.24436 0.0085-2.1404-0.08977-1.2245-0.54062 0.95795-0.47145 2.9774-0.91538 5.1975-1.0084z" fill="url(#linearGradient9487)" fill-rule="evenodd"/>
     <g>
      <rect transform="matrix(.99999 .0040293 .0046313 .99999 0 0)" x="-19.702" y="53.269" width="4.2393" height=".84196" fill="url(#radialGradient4505)"/>
      <rect transform="matrix(-.99999 -.0040293 .0046313 .99999 0 0)" x="4.8756" y="53.269" width="4.2062" height=".84196" fill="url(#radialGradient4507)"/>
      <rect transform="matrix(.99999 .0033145 .022534 .99975 0 0)" x="-20.583" y="53.276" width="14.675" height=".84221" fill="url(#radialGradient4509)"/>
     </g>
     <path d="m-13.421 60.088c2.8729 0.14031 5.7204-0.28146 5.9447-0.34904 0.22427-0.06747-3.2515 0.24448-5.483 0.03529-2.2145-0.2075-4.1591-1.2525-4.4033-1.2637-0.24414-0.01129-2.142 0.07453-1.2353 0.53184 0.9484 0.47826 2.9587 0.93664 5.1769 1.0455z" fill="url(#linearGradient9489)" fill-rule="evenodd"/>
     <g>
      <rect transform="matrix(1 .0031254 .02474 -.99969 0 0)" x="-18.055" y="-58.881" width="4.2394" height=".84212" fill="url(#radialGradient4513)"/>
      <rect transform="matrix(-1 -.0031254 .02474 -.99969 0 0)" x="3.2281" y="-58.881" width="4.2063" height=".84212" fill="url(#radialGradient4515)"/>
      <rect transform="matrix(.99999 .0038402 .042624 -.99909 0 0)" x="-16.928" y="-58.92" width="14.675" height=".84256" fill="url(#radialGradient4517)"/>
     </g>
    </g>
    <g fill-rule="evenodd">
     <path d="m-17.364 52.494c4.358-1.0911 7.8811-0.5802 10.902-0.0085 0.61639 0.28392-3.5135 0.2058-5.737 0.24956-1.5014 0.02964-5.451 0.07566-5.1646-0.24194z" opacity=".13115"/>
     <path d="m-17.364 52.494c4.358-1.0911 7.8811-0.5802 10.902-0.0085 0.61639 0.28392-3.655-0.06888-5.8787-0.06691-1.7296 0.0015-5.3094 0.39198-5.023 0.07425z" opacity=".22541"/>
     <path d="m-17.364 52.494c4.358-1.0911 7.8811-0.5802 10.902-0.0085 0.61639 0.28392-3.4543-0.35737-5.6779-0.3554-1.7296 0.0016-5.5101 0.68058-5.2237 0.3629z" opacity=".65574"/>
    </g>
    <rect transform="matrix(.99999 -.0033302 -.0032716 .99999 0 0)" x="-19.059" y="53.577" width="14.53" height="4.7234" fill="url(#linearGradient9491)" opacity=".41393"/>
    <g transform="matrix(.14926 .00014725 -.0017378 .13475 -24.179 39.531)">
     <g>
      <path d="m82.253 16.192c-37.957 0-68.92 30.931-68.92 68.888 0 37.957 30.963 68.92 68.92 68.92 37.957 0 68.92-30.963 68.92-68.92 0-37.957-30.963-68.888-68.92-68.888zm0 14.996c29.831 0 53.891 24.061 53.891 53.891 0 29.831-24.061 53.891-53.891 53.891-29.831 0-53.891-24.061-53.891-53.891 0-29.831 24.061-53.891 53.891-53.891z" fill="url(#radialGradient4467)"/>
      <path d="m13.333 85.08c0 37.957 30.963 68.92 68.92 68.92 37.957 0 68.92-30.963 68.92-68.92 0-37.957-137.84-37.957-137.84 0zm122.81 0c0 29.831-24.061 53.891-53.891 53.891-29.831 0-53.891-24.061-53.891-53.891 0-29.831 107.78-29.831 107.78 0z" fill="url(#linearGradient9477)"/>
      <path d="m82.253 16.192c-37.957 0-68.92 30.931-68.92 68.888 0 37.957 30.963 68.92 68.92 68.92 37.957 0 68.92-30.963 68.92-68.92 0-37.957-30.963-68.888-68.92-68.888zm0 14.996c29.831 0 53.891 24.061 53.891 53.891 0 29.831-24.061 53.891-53.891 53.891-29.831 0-53.891-24.061-53.891-53.891 0-29.831 24.061-53.891 53.891-53.891z" fill="url(#radialGradient4471)"/>
      <path d="m32.92 44.249c-7.1912 9.1576-11.296 20.719-11.296 33.304-1.7e-5 15.789 6.6423 30.016 17.412 39.86-6.7156-8.9878-10.587-20.22-10.587-32.339 1e-5 -29.831 23.964-53.819 53.794-53.819 13.983-1e-6 26.704 5.2695 36.268 13.959-9.8208-13.067-25.435-21.481-43.092-21.481-17.246 1.7e-5 -32.643 7.9659-42.498 20.515zm-4.8182 83.41c12.637 16.066 32.257 26.292 54.201 26.292 37.957-1e-5 68.884-30.818 68.884-68.775 2e-5 -19.401-8.1257-36.965-21.103-49.502 8.9154 11.61 14.278 26.264 14.278 41.981 0 37.957-30.926 68.775-68.883 68.775-18.271 0-35.02-7.0945-47.377-18.77z" fill="url(#linearGradient9479)"/>
      <path transform="matrix(3.3246 -3.768 3.4122 3.7607 -327.86 438.61)" d="m106.41 0.9375c-3.0632 0.099052-6.0156 1.2292-8.25 3.4062-2.6334 2.5658-3.7946 6.1133-3.5312 9.7188 0.22016-2.8878 1.3896-5.6321 3.5312-7.7188 5.1072-4.976 13.871-4.421 19.5 1.2188 2.7118 2.7171 4.2082 6.1317 4.4688 9.5 0.2865-3.9826-1.2146-8.2395-4.4688-11.5-3.1662-3.1724-7.3116-4.7524-11.25-4.625zm-8.7812 13.5c-0.30116 3.1717 0.88209 6.5957 3.5 9.2188 4.4237 4.4323 11.236 4.8482 15.25 0.9375 2.125-2.0704 3.023-4.9212 2.75-7.8125-0.21347 2.1761-1.1194 4.2238-2.75 5.8125-4.0138 3.9107-10.826 3.4948-15.25-0.9375-2.0736-2.0776-3.251-4.6586-3.5-7.2188z" fill="url(#linearGradient9481)"/>
     </g>
    </g>
    <g transform="matrix(.53742 .0013396 -.0065347 .6947 -2.056 44.577)">
     <rect x="-26.71" y="15.764" width="16.589" height="12.371" fill="url(#linearGradient9483)"/>
     <path transform="matrix(4.1667 0 0 1.3382 73.009 -10.529)" d="m-21.213 25.119c0 3.3177 0.18567 3.6993-0.9257 3.6993-1.3489 0-1.1956 2.2926-1.1956-1.0252s0.47518-8.6845 1.0607-8.6845c0.58548 0 1.0607 2.6927 1.0607 6.0104z" fill="url(#radialGradient4499)" opacity=".36475"/>
    </g>
    <g>
     <path d="m-13.055 51.829c-3.6446 0.12534-5.8744 1.003-6.3273 1.4896-0.0034 0.0028-0.01847 0.01976-0.02183 0.02258-0.0034 0.0028 0.0031 0.01976 3.08e-4 0.02258-0.0076 0.01129-0.01651 0.0319-0.02155 0.04489-0.0012 0.0028-0.02043 0.01976-0.02182 0.02258-0.0011 0.0028 1e-3 0.01976 3.05e-4 0.02258-2.21e-4 0.0019 3.07e-4 0.01976 3.05e-4 0.02258l-0.06089 5.049c-1.06e-4 0.0028 1.99e-4 0.01976 3.13e-4 0.02259 9.46e-4 0.0056 0.02071 0.01411 0.02238 0.02258 0.0011 0.0056-9.87e-4 0.01694 3.08e-4 0.02259 0.0048 0.01411 0.01539 0.03275 0.02267 0.04404 0.34789 0.49347 2.6918 1.4632 6.6792 1.5717 0.21361 0.0056 0.43837 0.0085 0.6614 0.0085 4.2458 0.01412 6.7958-0.85163 7.3419-1.4443 0.0028-0.0028 0.01903-0.01976 0.02183-0.02258 0.0298-0.04065 0.05221-0.09683 0.06422-0.13466 9.96e-4 -0.0028-9.87e-4 -0.01976-3.1e-4 -0.02259-3.67e-4 -0.0056-4.03e-4 -0.01694-3.05e-4 -0.02258 0.0031-0.12901 0.06181-4.8977 0.06119-5.0267-1.59e-4 -0.0056-5.09e-4 -0.03614-6.15e-4 -0.04432-0.01175-0.04573-0.05165-0.10502-0.09035-0.15386-0.0081-0.0085-0.01371-0.03444-0.02267-0.04404-0.0095-0.0085-0.0343-0.03388-0.04443-0.04376-0.02714-0.02541-0.0781-0.06154-0.11145-0.08667-0.80222-0.58144-3.2608-1.324-7.1388-1.3396-0.22301-9.03e-4 -0.44769-0.01129-0.6614-0.0085-0.12466 0.0025-0.2311 0.0028-0.35258 0.0085z" fill="url(#linearGradient9485)" fill-rule="evenodd"/>
     <path d="m-13.339 51.951c2.8755-0.1197 5.7144 0.32236 5.9373 0.39153 0.2229 0.06916-3.2463-0.26791-5.4819-0.07453-2.2185 0.19169-4.184 1.2226-4.4284 1.2321-0.24436 0.0085-2.1404-0.08977-1.2245-0.54062 0.95795-0.47145 2.9774-0.91538 5.1975-1.0084z" fill="url(#linearGradient9487)" fill-rule="evenodd"/>
     <g>
      <rect transform="matrix(.99999 .0040293 .0046313 .99999 0 0)" x="-19.702" y="53.269" width="4.2393" height=".84196" fill="url(#radialGradient4505)"/>
      <rect transform="matrix(-.99999 -.0040293 .0046313 .99999 0 0)" x="4.8756" y="53.269" width="4.2062" height=".84196" fill="url(#radialGradient4507)"/>
      <rect transform="matrix(.99999 .0033145 .022534 .99975 0 0)" x="-20.583" y="53.276" width="14.675" height=".84221" fill="url(#radialGradient4509)"/>
     </g>
     <path d="m-13.421 60.088c2.8729 0.14031 5.7204-0.28146 5.9447-0.34904 0.22427-0.06747-3.2515 0.24448-5.483 0.03529-2.2145-0.2075-4.1591-1.2525-4.4033-1.2637-0.24414-0.01129-2.142 0.07453-1.2353 0.53184 0.9484 0.47826 2.9587 0.93664 5.1769 1.0455z" fill="url(#linearGradient9489)" fill-rule="evenodd"/>
     <g>
      <rect transform="matrix(1 .0031254 .02474 -.99969 0 0)" x="-18.055" y="-58.881" width="4.2394" height=".84212" fill="url(#radialGradient4513)"/>
      <rect transform="matrix(-1 -.0031254 .02474 -.99969 0 0)" x="3.2281" y="-58.881" width="4.2063" height=".84212" fill="url(#radialGradient4515)"/>
      <rect transform="matrix(.99999 .0038402 .042624 -.99909 0 0)" x="-16.928" y="-58.92" width="14.675" height=".84256" fill="url(#radialGradient4517)"/>
     </g>
    </g>
    <g fill-rule="evenodd">
     <path d="m-17.364 52.494c4.358-1.0911 7.8811-0.5802 10.902-0.0085 0.61639 0.28392-3.5135 0.2058-5.737 0.24956-1.5014 0.02964-5.451 0.07566-5.1646-0.24194z" opacity=".13115"/>
     <path d="m-17.364 52.494c4.358-1.0911 7.8811-0.5802 10.902-0.0085 0.61639 0.28392-3.655-0.06888-5.8787-0.06691-1.7296 0.0015-5.3094 0.39198-5.023 0.07425z" opacity=".22541"/>
     <path d="m-17.364 52.494c4.358-1.0911 7.8811-0.5802 10.902-0.0085 0.61639 0.28392-3.4543-0.35737-5.6779-0.3554-1.7296 0.0016-5.5101 0.68058-5.2237 0.3629z" opacity=".65574"/>
    </g>
    <g>
     <rect transform="matrix(.99999 -.0033302 -.0032716 .99999 0 0)" x="-19.059" y="53.577" width="14.53" height="4.7234" fill="url(#linearGradient9491)" opacity=".41393"/>
     <path d="m-16.478 64.088 8.9085 0.01694 0.04712-4.2641c1.4244-0.27327 2.4157-0.83596 2.8124-1.1573 0 0 0.02546-1.0536 0.02823-1.2649-0.15793-3.9878-11.83 1.2553-11.796 6.6704z" fill="url(#linearGradient4597)"/>
     <path d="m-12.992 60.093c3.2545 0.51958 7.7648-0.66494 8.2295-1.3349 0 0-4.6699 0.20862-6.743 0.52015-2.0731 0.3115-1.4865 0.81471-1.4865 0.81471z" fill="url(#linearGradient9493)" fill-rule="evenodd"/>
     <path d="m-12.992 60.093c3.2545 0.51958 7.7648-0.66494 8.2295-1.3349 0 0-3.8913 0.98053-5.976 0.76118-2.1492-0.22613-2.2697 0.45951-2.2535 0.57367z" fill="url(#linearGradient9493)" fill-rule="evenodd"/>
    </g>
   </g>
   <g transform="rotate(90 123.38 69.8)">
    <g transform="matrix(-.53743 -.54222 .53743 -.54222 103.25 222.11)">
     <rect transform="matrix(.0099451 .99995 -.99995 .0098147 0 0)" x="63.26" y="-115.1" width="5.5478" height="6.3291" fill="url(#linearGradient9495)"/>
     <rect transform="matrix(.99969 -.024707 -.042604 .99909 0 0)" x="114.99" y="67.053" width="2.941" height="3.5996" fill="url(#linearGradient9497)"/>
     <g transform="matrix(.0043609 .43846 -.44136 .0043322 127.01 72.866)">
      <rect x="-26.71" y="15.764" width="16.589" height="12.371" fill="#a00"/>
      <path transform="matrix(4.1667 0 0 1.3382 73.009 -10.529)" d="m-21.213 25.119c0 3.3177 0.18567 3.6993-0.9257 3.6993-1.3489 0-1.1956 2.2926-1.1956-1.0252s0.47518-8.6845 1.0607-8.6845c0.58548 0 1.0607 2.6927 1.0607 6.0104z" fill="url(#radialGradient4499)" opacity=".36475"/>
     </g>
     <g transform="matrix(.0043609 .43846 -.44136 .0043322 127.01 72.722)">
      <path d="m-19.344 8.9688c-7.4215 0.17419-11.811 2.0267-12.469 2.9688-0.03694 0.05788-0.05475 0.13732-0.0625 0.1875-5.08e-4 7e-3 -9.2e-5 0.02443 0 0.03125v5.9062h27.594s-0.025893-5.4772-0.03125-5.875c-2.288e-4 -0.01709 0.0026-0.04492 0-0.0625-0.018936-0.08905-0.07851-0.21336-0.15625-0.3125-0.95278-1.1399-5.6937-2.8334-13.656-2.8438-0.41501-5.411e-4 -0.82117-0.00933-1.2188 0z" fill="#a00" fill-rule="evenodd"/>
      <path d="m-20.537 9.2059c5.3484-0.24448 10.638 0.58715 11.054 0.71844 0.41593 0.1313-6.045-0.49573-10.201-0.11387-4.1247 0.37894-7.7644 2.3635-8.2189 2.383-0.4545 0.01952-3.9841-0.16086-2.2877-1.0289 1.7744-0.90791 5.5243-1.7688 9.6538-1.9587z" fill="url(#linearGradient9499)" fill-rule="evenodd"/>
      <rect transform="matrix(1 .00056811 .030821 .99952 0 0)" x="-32.12" y="11.642" width="27.306" height="1.6131" fill="url(#radialGradient8890)"/>
      <path d="m-31.019 12.593c-0.1942 0.70253-0.3125 1.4797-0.3125 2.2789 0 1.184 0.21885 2.2809 0.625 3.2244h7.5625c0.40615-0.94347 0.65625-2.0403 0.65625-3.2244 0-0.79922-0.1183-1.5764-0.3125-2.2789z" fill="url(#radialGradient8892)" opacity=".5082"/>
     </g>
    </g>
   </g>
   <g transform="translate(-65.104 -101.8)">
    <g transform="matrix(-.53743 -.54222 .53743 -.54222 103.25 222.11)">
     <rect transform="matrix(.0099451 .99995 -.99995 .0098147 0 0)" x="63.26" y="-115.1" width="5.5478" height="6.3291" fill="url(#linearGradient9495)"/>
     <rect transform="matrix(.99969 -.024707 -.042604 .99909 0 0)" x="114.99" y="67.053" width="2.941" height="3.5996" fill="url(#linearGradient9497)"/>
     <g transform="matrix(.0043609 .43846 -.44136 .0043322 127.01 72.866)">
      <rect x="-26.71" y="15.764" width="16.589" height="12.371" fill="#008000"/>
      <path transform="matrix(4.1667 0 0 1.3382 73.009 -10.529)" d="m-21.213 25.119c0 3.3177 0.18567 3.6993-0.9257 3.6993-1.3489 0-1.1956 2.2926-1.1956-1.0252s0.47518-8.6845 1.0607-8.6845c0.58548 0 1.0607 2.6927 1.0607 6.0104z" fill="url(#radialGradient4499)" opacity=".36475"/>
     </g>
     <g transform="matrix(.0043609 .43846 -.44136 .0043322 127.01 72.722)">
      <path d="m-19.344 8.9688c-7.4215 0.17419-11.811 2.0267-12.469 2.9688-0.03694 0.05788-0.05475 0.13732-0.0625 0.1875-5.08e-4 7e-3 -9.2e-5 0.02443 0 0.03125v5.9062h27.594s-0.025893-5.4772-0.03125-5.875c-2.288e-4 -0.01709 0.0026-0.04492 0-0.0625-0.018936-0.08905-0.07851-0.21336-0.15625-0.3125-0.95278-1.1399-5.6937-2.8334-13.656-2.8438-0.41501-5.411e-4 -0.82117-0.00933-1.2188 0z" fill="#008000" fill-rule="evenodd"/>
      <path d="m-20.537 9.2059c5.3484-0.24448 10.638 0.58715 11.054 0.71844 0.41593 0.1313-6.045-0.49573-10.201-0.11387-4.1247 0.37894-7.7644 2.3635-8.2189 2.383-0.4545 0.01952-3.9841-0.16086-2.2877-1.0289 1.7744-0.90791 5.5243-1.7688 9.6538-1.9587z" fill="url(#linearGradient9499)" fill-rule="evenodd"/>
      <rect transform="matrix(1 .00056811 .030821 .99952 0 0)" x="-32.12" y="11.642" width="27.306" height="1.6131" fill="url(#radialGradient8890)"/>
      <path d="m-31.019 12.593c-0.1942 0.70253-0.3125 1.4797-0.3125 2.2789 0 1.184 0.21885 2.2809 0.625 3.2244h7.5625c0.40615-0.94347 0.65625-2.0403 0.65625-3.2244 0-0.79922-0.1183-1.5764-0.3125-2.2789z" fill="url(#radialGradient8892)" opacity=".5082"/>
     </g>
    </g>
   </g>
   <ellipse cx="40" cy="52.001" rx="38.75" ry="38.75" fill="#808080" fill-opacity=".98508"/>
   <g transform="matrix(.99528 0 0 .99528 -175.67 -54.723)">
    <path d="m216.8 68.802a38.349 38.349 0 0 0-38.349 38.349 38.349 38.349 0 0 0 38.349 38.349 38.349 38.349 0 0 0 38.349-38.349 38.349 38.349 0 0 0-38.349-38.349zm0 5.4129a32.936 32.936 0 0 1 32.937 32.936 32.936 32.936 0 0 1-32.937 32.937 32.936 32.936 0 0 1-32.937-32.937 32.936 32.936 0 0 1 32.937-32.936z" fill="#fff"/>
    <path d="m246.34 82.551a38.349 38.349 0 0 0-54.062-4.3202 38.349 38.349 0 0 0-4.3201 54.062 38.349 38.349 0 0 0 54.062 4.3202 38.349 38.349 0 0 0 4.3201-54.062zm-4.1202 3.5104a32.936 32.936 49.569 0 1-3.7104 46.431 32.936 32.936 49.569 0 1-46.431-3.7104 32.936 32.936 49.569 0 1 3.7104-46.431 32.936 32.936 49.569 0 1 46.431 3.7104z" fill="url(#linearGradient6877)"/>
    <path transform="matrix(.26458 0 0 .26458 28.24 -136.21)" d="m717.63 775.25c34.627 1.8285 68.373 16.511 92.824 41.363l0.043 0.0371c63.759 59.925 50.314 175.33-25.674 218.8-72.698 48.786-182.16 9.499-207.4-74.291-20.698-54.621 0.39044-116.15 42.611-152.88a144.94 144.94 0 0 0-52.715 111.73 144.94 144.94 0 0 0 144.94 144.94 144.94 144.94 0 0 0 144.94-144.94 144.94 144.94 0 0 0-139.57-144.75zm-2.9473 12.066c-1.1793-5e-3 -2.3602 0.01-3.5449 0.043a3.4978 3.4978 0 0 1-0.13281 0c-46.059-0.45623-91.029 26.06-112.95 66.57a3.4978 3.4978 0 0 1-0.0664 0.11719c-38.974 65.887-2.4944 160.82 70.777 183.24a3.4978 3.4978 0 0 1 0.22852 0.082c18.835 7.227 38.784 8.9046 58.125 6.0723a124.48 124.48 0 0 1-14.859 1.0468 124.48 124.48 0 0 1-124.48-124.48 124.48 124.48 0 0 1 124.48-124.48 124.48 124.48 0 0 1 124.48 124.48 124.48 124.48 0 0 1-32.969 84.164c17.875-18.245 30.359-41.561 33.631-67.666a3.4978 3.4978 0 0 1 0.0371-0.24219c14.468-73.326-48.464-148.63-122.76-148.94z" fill="#333" filter="url(#filter6960)"/>
   </g>
   <path d="m17.928 27.471 2.9215 3.2446" fill="#808080" fill-rule="evenodd" stroke="#b3b3b3" stroke-width=".52392"/>
   <ellipse cx="40" cy="52.001" rx="32.811" ry="32.811" fill="#fff"/>
   <path d="m39.698 19.331a32.909 32.732 0 0 0-7e-3 3.4e-4v4.0183a28.869 28.713 0 0 1 7e-3 -3.4e-4 28.869 28.713 0 0 1 28.869 28.713 28.869 28.713 0 0 1-3.9036 14.365l3.4954 2.0083a32.909 32.732 0 0 0 4.4482-16.373 32.909 32.732 0 0 0-32.909-32.732z" fill="#ff2a2a" fill-opacity=".78431"/>
   <ellipse cx="40" cy="52.001" rx="28.535" ry="28.536" fill="none" stroke="#b3b3b3" stroke-linecap="round" stroke-width=".22451"/>
   <path d="m40 18.929v6.9857" fill-rule="evenodd" stroke="#666" stroke-width="1.0478"/>
   <g fill="#808080" fill-rule="evenodd">
    <g stroke="#b3b3b3" stroke-width=".52392">
     <path d="m43.448 19.179-0.45638 4.3421"/>
     <path d="m46.858 19.719-0.90774 4.2706"/>
     <path d="m50.193 20.613-1.3492 4.1524"/>
     <path d="m53.417 21.85-1.7758 3.9886"/>
     <path d="m59.389 25.298-2.5663 3.5322"/>
     <path d="m62.072 27.471-2.9214 3.2446"/>
     <path d="m64.513 29.912-3.2446 2.9214"/>
     <path d="m66.686 32.595-3.5322 2.5663"/>
     <path d="m70.134 38.568-3.9886 1.7758"/>
     <path d="m71.371 41.791-4.1523 1.3492"/>
     <path d="m72.265 45.126-4.2706 0.90777"/>
     <path d="m72.805 48.536-4.3421 0.45638"/>
    </g>
    <path d="m73.073 51.984-6.9857 1e-5" stroke="#666" stroke-width="1.0478"/>
    <g stroke="#b3b3b3" stroke-width=".52392">
     <path d="m72.805 55.432-4.3421-0.45636"/>
     <path d="m72.265 58.842-4.2706-0.90775"/>
     <path d="m71.371 62.177-4.1524-1.3492"/>
     <path d="m70.134 65.401-3.9886-1.7758"/>
     <path d="m66.686 71.373-3.5322-2.5663"/>
     <path d="m64.513 74.056-3.2446-2.9214"/>
     <path d="m62.072 76.497-2.9215-3.2446"/>
     <path d="m59.389 78.67-2.5663-3.5322"/>
     <path d="m53.417 82.118-1.7759-3.9886"/>
     <path d="m50.193 83.355-1.3492-4.1524"/>
     <path d="m46.858 84.249-0.90777-4.2706"/>
     <path d="m43.448 84.789-0.4564-4.3421"/>
    </g>
    <path d="m40 84.97-1.1e-5 -6.9857" stroke="#666" stroke-width="1.0478"/>
    <g stroke="#999" stroke-width=".52392">
     <path d="m36.552 84.789 0.45635-4.3421"/>
     <path d="m33.142 84.249 0.90773-4.2707"/>
     <path d="m29.807 83.355 1.3492-4.1524"/>
     <path d="m26.583 82.118 1.7758-3.9886"/>
    </g>
    <g stroke="#b3b3b3" stroke-width=".52392">
     <path d="m20.611 78.67 2.5663-3.5322"/>
     <path d="m17.928 76.497 2.9214-3.2446"/>
     <path d="m15.487 74.056 3.2446-2.9215"/>
     <path d="m13.314 71.373 3.5322-2.5663"/>
     <path d="m9.866 65.401 3.9886-1.7759"/>
     <path d="m8.6287 62.177 4.1524-1.3492"/>
     <path d="m7.735 58.842 4.2706-0.90779"/>
     <path d="m7.1949 55.432 4.3421-0.45639"/>
    </g>
    <path d="m7.0142 51.984 6.9857-2e-5" stroke="#666" stroke-width="1.0478"/>
    <g stroke="#b3b3b3" stroke-width=".52392">
     <path d="m7.1949 48.536 4.3422 0.45634"/>
     <path d="m7.735 45.126 4.2706 0.90773"/>
     <path d="m8.6286 41.791 4.1524 1.3492"/>
     <path d="m9.866 38.568 3.9886 1.7758"/>
     <path d="m13.314 32.595 3.5322 2.5663"/>
     <path d="m15.487 29.912 3.2446 2.9215"/>
     <path d="m20.611 25.298 2.5663 3.5322"/>
     <path d="m26.583 21.85 1.7759 3.9886"/>
     <path d="m29.807 20.613 1.3492 4.1524"/>
     <path d="m33.142 19.719 0.90778 4.2707"/>
     <path d="m36.552 19.179 0.4564 4.3421"/>
    </g>
   </g>
   <path d="m56.493 23.418-3.4928 6.0498" fill-rule="evenodd" stroke="#666" stroke-width="1.0478"/>
   <path d="m68.567 35.491-6.0498 3.4928" fill-rule="evenodd" stroke="#666" stroke-width="1.0478"/>
   <g fill="#808080" fill-rule="evenodd" stroke="#666" stroke-width="1.0478">
    <path d="m23.507 23.418 3.4928 6.0498"/>
    <path d="m11.433 35.491 6.0497 3.4928"/>
    <path d="m68.567 68.477-6.0498-3.4928"/>
    <path d="m56.493 80.551-3.4928-6.0498"/>
    <path d="m23.507 80.551 3.4928-6.0498"/>
    <path d="m11.433 68.477 6.0497-3.4928"/>
   </g>
   <g fill="#f00" fill-opacity=".58824" stroke-width=".20381px">
    <g transform="matrix(.85687 0 0 .85687 -42.718 -87.139)" aria-label="60">
     <path d="m94.693 136q-0.39701 0-0.63055 0.27148-0.23062 0.27149-0.23062 0.7444 0 0.46999 0.23062 0.7444 0.23354 0.27149 0.63055 0.27149 0.39701 0 0.62763-0.27149 0.23354-0.27441 0.23354-0.7444 0-0.47291-0.23354-0.7444-0.23062-0.27148-0.62763-0.27148zm1.1706-1.8479v0.53713q-0.22186-0.10509-0.44956-0.16056-0.22478-0.0555-0.44664-0.0555-0.58384 0-0.89328 0.39409-0.30652 0.3941-0.3503 1.191 0.17223-0.25397 0.43204-0.38825 0.25981-0.13721 0.57216-0.13721 0.65682 0 1.0363 0.39993 0.38242 0.39702 0.38242 1.083 0 0.67142-0.39701 1.0772-0.39701 0.40577-1.0568 0.40577-0.75608 0-1.156-0.578-0.39993-0.58093-0.39993-1.6815 0-1.0334 0.49043-1.6464 0.49043-0.61596 1.3166-0.61596 0.22186 0 0.44664 0.0438 0.2277 0.0438 0.47291 0.13137z"/>
     <path d="m98.427 134.44q-0.4554 0-0.68601 0.44956-0.2277 0.44664-0.2277 1.3458 0 0.8962 0.2277 1.3458 0.23062 0.44664 0.68601 0.44664 0.45832 0 0.68602-0.44664 0.23062-0.44956 0.23062-1.3458 0-0.89911-0.23062-1.3458-0.2277-0.44956-0.68602-0.44956zm0-0.46708q0.73272 0 1.1181 0.58093 0.38826 0.578 0.38826 1.6815 0 1.1005-0.38826 1.6815-0.38534 0.578-1.1181 0.578t-1.121-0.578q-0.38534-0.58093-0.38534-1.6815 0-1.1035 0.38534-1.6815 0.38825-0.58093 1.121-0.58093z"/>
    </g>
    <g transform="matrix(.85687 0 0 .85687 -42.718 -87.139)" aria-label="15">
     <path d="m118.6 164h0.96334v-3.325l-1.048 0.21019v-0.53714l1.0422-0.21018h0.58968v3.8621h0.96334v0.49627h-2.5105z"/>
     <path d="m122.31 160.14h2.3149v0.49626h-1.7749v1.0684q0.12844-0.0438 0.25689-0.0642 0.12844-0.0233 0.25689-0.0233 0.7298 0 1.156 0.39993 0.42621 0.39993 0.42621 1.083 0 0.70353-0.43788 1.0947-0.43788 0.38826-1.2348 0.38826-0.2744 0-0.56049-0.0467-0.28316-0.0467-0.58676-0.14012v-0.5926q0.26273 0.14304 0.54297 0.2131 0.28025 0.0701 0.5926 0.0701 0.50503 0 0.79987-0.26565t0.29484-0.72104q0-0.4554-0.29484-0.72105t-0.79987-0.26565q-0.23645 0-0.47291 0.0525-0.23353 0.0525-0.47875 0.16348z"/>
    </g>
    <g transform="matrix(.85687 0 0 .85687 -42.718 -87.139)" aria-label="45">
     <path d="m70.198 160.65-1.4888 2.3266h1.4888zm-0.15472-0.51378h0.74148v2.8404h0.62179v0.49043h-0.62179v1.0276h-0.58676v-1.0276h-1.9675v-0.56925z"/>
     <path d="m72.39 160.14h2.3149v0.49626h-1.7749v1.0684q0.12844-0.0438 0.25689-0.0642 0.12845-0.0233 0.25689-0.0233 0.7298 0 1.156 0.39993t0.4262 1.083q0 0.70353-0.43788 1.0947-0.43788 0.38826-1.2348 0.38826-0.2744 0-0.56049-0.0467-0.28316-0.0467-0.58676-0.14012v-0.5926q0.26273 0.14304 0.54297 0.2131 0.28024 0.0701 0.5926 0.0701 0.50502 0 0.79986-0.26565t0.29484-0.72104q0-0.4554-0.29484-0.72105t-0.79986-0.26565q-0.23646 0-0.47291 0.0525-0.23354 0.0525-0.47875 0.16348z"/>
    </g>
    <g transform="matrix(.85687 0 0 .85687 -42.718 -87.139)" aria-label="30">
     <path d="m95.127 188.23q0.42328 0.0905 0.65974 0.37658 0.23938 0.28608 0.23938 0.70645 0 0.64514-0.44372 0.99837-0.44372 0.35322-1.2611 0.35322-0.27441 0-0.56633-0.0555-0.289-0.0525-0.59844-0.16056v-0.56924q0.24521 0.14304 0.53714 0.21602 0.29192 0.073 0.61012 0.073 0.55465 0 0.84365-0.21894 0.29192-0.21894 0.29192-0.63639 0-0.38534-0.27149-0.60136-0.26857-0.21894-0.75024-0.21894h-0.50794v-0.48459h0.5313q0.43496 0 0.66558-0.17223 0.23062-0.17515 0.23062-0.50211 0-0.3357-0.23938-0.51378-0.23646-0.18099-0.68018-0.18099-0.2423 0-0.51962 0.0525t-0.61012 0.16347v-0.52545q0.33571-0.0934 0.62763-0.14013 0.29484-0.0467 0.55465-0.0467 0.67142 0 1.0626 0.30651 0.39117 0.3036 0.39117 0.82322 0 0.36198-0.20726 0.61304-0.20726 0.24813-0.58968 0.34446z"/>
     <path d="m98.408 186.61q-0.4554 0-0.68601 0.44956-0.2277 0.44664-0.2277 1.3458 0 0.8962 0.2277 1.3458 0.23062 0.44664 0.68601 0.44664 0.45832 0 0.68601-0.44664 0.23062-0.44956 0.23062-1.3458 0-0.89911-0.23062-1.3458-0.2277-0.44956-0.68601-0.44956zm0-0.46707q0.73272 0 1.1181 0.58092 0.38826 0.578 0.38826 1.6815 0 1.1006-0.38826 1.6815-0.38534 0.578-1.1181 0.578t-1.121-0.578q-0.38534-0.58092-0.38534-1.6815 0-1.1035 0.38534-1.6815 0.38826-0.58092 1.121-0.58092z"/>
    </g>
   </g>
   <g fill="#808080">
    <g transform="matrix(.85687 0 0 .85687 -42.718 -87.139)" aria-label="5">
     <path d="m109.4 136.74h1.6836v0.36092h-1.2908v0.77704q0.0934-0.0318 0.18683-0.0467 0.0934-0.017 0.18683-0.017 0.53076 0 0.84073 0.29086t0.30997 0.78766q0 0.51165-0.31846 0.79614-0.31846 0.28237-0.89806 0.28237-0.19957 0-0.40763-0.034-0.20593-0.034-0.42673-0.1019v-0.43099q0.19107 0.10403 0.39489 0.15499 0.20381 0.051 0.43098 0.051 0.36729 0 0.58172-0.1932t0.21443-0.52439q0-0.3312-0.21443-0.5244t-0.58172-0.1932q-0.17197 0-0.34394 0.0382-0.16984 0.0382-0.34818 0.11889z" fill="#808080" stroke-width=".20381px"/>
    </g>
    <g transform="matrix(.85687 0 0 .85687 -42.718 -87.139)" stroke-width=".20381px" aria-label="10">
     <path d="m117.04 149.07h0.70061v-2.4182l-0.76218 0.15287v-0.39065l0.75793-0.15286h0.42886v2.8088h0.70061v0.36092h-1.8258z"/>
     <path d="m120.65 146.54q-0.3312 0-0.49892 0.32695-0.1656 0.32483-0.1656 0.97873 0 0.65178 0.1656 0.97873 0.16772 0.32483 0.49892 0.32483 0.33332 0 0.49891-0.32483 0.16773-0.32695 0.16773-0.97873 0-0.6539-0.16773-0.97873-0.16559-0.32695-0.49891-0.32695zm0-0.33969q0.53288 0 0.81313 0.42249 0.28237 0.42036 0.28237 1.2229 0 0.8004-0.28237 1.2229-0.28025 0.42036-0.81313 0.42036-0.53289 0-0.81526-0.42036-0.28024-0.42249-0.28024-1.2229 0-0.80252 0.28024-1.2229 0.28237-0.42249 0.81526-0.42249z"/>
    </g>
    <g transform="matrix(.85687 0 0 .85687 -42.718 -87.139)" stroke-width=".20381px" aria-label="20">
     <path d="m117.93 176.81h1.4968v0.36092h-2.0127v-0.36092q0.24415-0.25264 0.66451-0.67725 0.42249-0.42674 0.53077-0.54988 0.20594-0.23141 0.28661-0.39064 0.0828-0.16135 0.0828-0.31634 0-0.25264-0.17833-0.41187-0.17622-0.15923-0.46071-0.15923-0.20169 0-0.42673 0.0701-0.22293 0.0701-0.47769 0.21231v-0.43311q0.25901-0.10403 0.48405-0.1571 0.22505-0.0531 0.41188-0.0531 0.49255 0 0.78553 0.24628 0.29298 0.24627 0.29298 0.65814 0 0.19533-0.0743 0.37154-0.0722 0.17409-0.26539 0.41187-0.0531 0.0616-0.33756 0.35668-0.28449 0.29298-0.80252 0.82162z"/>
     <path d="m121.24 174.28q-0.3312 0-0.49892 0.32695-0.1656 0.32483-0.1656 0.97873 0 0.65178 0.1656 0.97873 0.16772 0.32483 0.49892 0.32483 0.33332 0 0.49892-0.32483 0.16772-0.32695 0.16772-0.97873 0-0.6539-0.16772-0.97873-0.1656-0.32695-0.49892-0.32695zm0-0.33969q0.53289 0 0.81313 0.42249 0.28237 0.42037 0.28237 1.2229 0 0.8004-0.28237 1.2229-0.28024 0.42036-0.81313 0.42036t-0.81525-0.42036q-0.28025-0.42249-0.28025-1.2229 0-0.80251 0.28025-1.2229 0.28236-0.42249 0.81525-0.42249z"/>
    </g>
    <g transform="matrix(.85687 0 0 .85687 -42.718 -87.139)" stroke-width=".20381px" aria-label="25">
     <path d="m109.14 187.04h1.4968v0.36092h-2.0127v-0.36092q0.24415-0.25265 0.66452-0.67726 0.42249-0.42674 0.53076-0.54987 0.20594-0.23142 0.28662-0.39065 0.0828-0.16135 0.0828-0.31633 0-0.25265-0.17834-0.41188-0.17622-0.15923-0.46071-0.15923-0.20169 0-0.42673 0.0701-0.22292 0.0701-0.47769 0.21231v-0.4331q0.25901-0.10403 0.48406-0.15711 0.22504-0.0531 0.41187-0.0531 0.49255 0 0.78553 0.24628 0.29299 0.24627 0.29299 0.65815 0 0.19532-0.0743 0.37153-0.0722 0.17409-0.26538 0.41188-0.0531 0.0616-0.33757 0.35667-0.28449 0.29298-0.80252 0.82163z"/>
     <path d="m111.54 184.24h1.6836v0.36092h-1.2908v0.77704q0.0934-0.0318 0.18682-0.0467 0.0934-0.017 0.18683-0.017 0.53077 0 0.84074 0.29085 0.30996 0.29086 0.30996 0.78766 0 0.51166-0.31846 0.79615-0.31845 0.28237-0.89805 0.28237-0.19957 0-0.40763-0.034-0.20594-0.034-0.42673-0.10191v-0.43098q0.19107 0.10403 0.39489 0.15498 0.20381 0.051 0.43098 0.051 0.36729 0 0.58172-0.1932t0.21443-0.5244-0.21443-0.5244q-0.21443-0.19319-0.58172-0.19319-0.17197 0-0.34394 0.0382-0.16984 0.0382-0.34818 0.11889z"/>
    </g>
    <g transform="matrix(.85687 0 0 .85687 -42.718 -87.139)" stroke-width=".20381px" aria-label="35">
     <path d="m81.076 185.68q0.30784 0.0658 0.47981 0.27388 0.17409 0.20806 0.17409 0.51378 0 0.4692-0.32271 0.72609-0.3227 0.25689-0.91716 0.25689-0.19957 0-0.41187-0.0403-0.21018-0.0382-0.43523-0.11677v-0.414q0.17834 0.10403 0.39064 0.15711 0.21231 0.0531 0.44372 0.0531 0.40338 0 0.61356-0.15923 0.21231-0.15923 0.21231-0.46283 0-0.28025-0.19744-0.43735-0.19532-0.15923-0.54563-0.15923h-0.36941v-0.35243h0.3864q0.31634 0 0.48406-0.12526 0.16772-0.12738 0.16772-0.36517 0-0.24415-0.17409-0.37366-0.17197-0.13163-0.49467-0.13163-0.17621 0-0.3779 0.0382t-0.44372 0.11889v-0.38215q0.24415-0.0679 0.45646-0.10191 0.21443-0.034 0.40338-0.034 0.4883 0 0.77279 0.22293 0.28449 0.22079 0.28449 0.5987 0 0.26326-0.15074 0.44584-0.15074 0.18046-0.42886 0.25052z"/>
     <path d="m82.55 184.22h1.6836v0.36092h-1.2908v0.77704q0.09342-0.0318 0.18683-0.0467 0.09341-0.017 0.18683-0.017 0.53077 0 0.84073 0.29086 0.30997 0.29085 0.30997 0.78765 0 0.51166-0.31846 0.79615-0.31846 0.28237-0.89806 0.28237-0.19957 0-0.40763-0.034-0.20594-0.034-0.42674-0.10191v-0.43098q0.19108 0.10403 0.39489 0.15498 0.20381 0.051 0.43098 0.051 0.36729 0 0.58172-0.1932t0.21443-0.5244-0.21443-0.5244q-0.21443-0.19319-0.58172-0.19319-0.17197 0-0.34394 0.0382-0.16984 0.0382-0.34818 0.11889z"/>
    </g>
    <g transform="matrix(.85687 0 0 .85687 -42.718 -87.139)" stroke-width=".20381px" aria-label="40">
     <path d="m72.122 174.38-1.0828 1.6921h1.0828zm-0.11252-0.37366h0.53926v2.0657h0.45221v0.35668h-0.45221v0.74732h-0.42674v-0.74732h-1.4309v-0.414z"/>
     <path d="m74.63 174.29q-0.3312 0-0.49892 0.32695-0.1656 0.32483-0.1656 0.97873 0 0.65178 0.1656 0.97874 0.16772 0.32482 0.49892 0.32482 0.33332 0 0.49892-0.32482 0.16772-0.32696 0.16772-0.97874 0-0.6539-0.16772-0.97873-0.1656-0.32695-0.49892-0.32695zm0-0.33969q0.53289 0 0.81313 0.42249 0.28237 0.42037 0.28237 1.2229 0 0.8004-0.28237 1.2229-0.28024 0.42036-0.81313 0.42036-0.53289 0-0.81526-0.42036-0.28024-0.42249-0.28024-1.2229 0-0.80251 0.28024-1.2229 0.28237-0.42249 0.81526-0.42249z"/>
    </g>
    <g transform="matrix(.85687 0 0 .85687 -42.718 -87.139)" stroke-width=".20381px" aria-label="50">
     <path d="m71.088 147h1.6836v0.36092h-1.2908v0.77704q0.09341-0.0318 0.18683-0.0467 0.09341-0.017 0.18683-0.017 0.53077 0 0.84073 0.29086t0.30997 0.78765q0 0.51166-0.31846 0.79615-0.31846 0.28237-0.89806 0.28237-0.19957 0-0.40763-0.034-0.20594-0.034-0.42674-0.10191v-0.43098q0.19108 0.10403 0.39489 0.15499 0.20381 0.051 0.43098 0.051 0.36729 0 0.58172-0.1932t0.21443-0.5244q0-0.33119-0.21443-0.52439t-0.58172-0.1932q-0.17197 0-0.34394 0.0382-0.16984 0.0382-0.34818 0.1189z"/>
     <path d="m74.77 147.29q-0.3312 0-0.49892 0.32695-0.1656 0.32483-0.1656 0.97873 0 0.65178 0.1656 0.97873 0.16772 0.32483 0.49892 0.32483 0.33332 0 0.49892-0.32483 0.16772-0.32695 0.16772-0.97873 0-0.6539-0.16772-0.97873-0.1656-0.32695-0.49892-0.32695zm0-0.33969q0.53289 0 0.81313 0.42249 0.28237 0.42036 0.28237 1.2229 0 0.80039-0.28237 1.2229-0.28024 0.42037-0.81313 0.42037-0.53289 0-0.81526-0.42037-0.28024-0.42249-0.28024-1.2229 0-0.80252 0.28024-1.2229 0.28237-0.42249 0.81526-0.42249z"/>
    </g>
    <g transform="matrix(.85687 0 0 .85687 -42.718 -87.139)" stroke-width=".20381px" aria-label="55">
     <path d="m80.731 137.11h1.6836v0.36092h-1.2908v0.77704q0.09341-0.0318 0.18683-0.0467 0.09341-0.017 0.18683-0.017 0.53077 0 0.84073 0.29086t0.30997 0.78765q0 0.51166-0.31846 0.79615-0.31846 0.28237-0.89806 0.28237-0.19957 0-0.40763-0.034-0.20594-0.034-0.42674-0.10191v-0.43098q0.19108 0.10403 0.39489 0.15499 0.20381 0.051 0.43098 0.051 0.36729 0 0.58172-0.1932t0.21443-0.5244q0-0.33119-0.21443-0.52439t-0.58172-0.1932q-0.17197 0-0.34394 0.0382-0.16984 0.0382-0.34818 0.1189z"/>
     <path d="m83.499 137.11h1.6836v0.36092h-1.2908v0.77704q0.09341-0.0318 0.18683-0.0467 0.09342-0.017 0.18683-0.017 0.53076 0 0.84073 0.29086t0.30997 0.78765q0 0.51166-0.31846 0.79615-0.31846 0.28237-0.89806 0.28237-0.19957 0-0.40763-0.034-0.20594-0.034-0.42674-0.10191v-0.43098q0.19108 0.10403 0.39489 0.15499 0.20381 0.051 0.43098 0.051 0.36729 0 0.58172-0.1932 0.21443-0.1932 0.21443-0.5244 0-0.33119-0.21443-0.52439-0.21443-0.1932-0.58172-0.1932-0.17197 0-0.34394 0.0382-0.16984 0.0382-0.34818 0.1189z"/>
    </g>
   </g>
   <ellipse cx="40" cy="52.001" rx="32.811" ry="32.811" fill="none" stroke="#666" stroke-linecap="round" stroke-width=".52392"/>
   <ellipse cx="40" cy="52.001" rx="32.811" ry="32.811" fill="none" stroke="#666" stroke-linecap="round" stroke-width=".52392"/>
   <g>
    <path d="m39.96 18.802c-18.301 0.17051-33.231 15.349-33.417 34.073-0.06744 6.7822 1.8177 13.116 5.1075 18.446l59.891-30.269c-4.6541-12.943-16.807-22.197-31.144-22.249-0.14452-5e-4 -0.29363-3e-3 -0.43774-2e-3z" fill="url(#radialGradient8778)" opacity=".69672"/>
    <ellipse cx="40" cy="99.968" rx="33.073" ry="3.1491" fill="url(#radialGradient8995)"/>
    <text x="34.228809" y="66.521187" fill="#808080" font-family="sans-serif" font-size="4.5434px" letter-spacing="0px" stroke-width=".11358px" word-spacing="0px" style="line-height:1.81734px" xml:space="preserve"><tspan x="34.228809" y="66.521187" fill="#808080" font-family="'Times New Roman'" font-size="4.5434px" stroke-width=".11358px" style="font-feature-settings:normal;font-variant-caps:normal;font-variant-ligatures:normal;font-variant-numeric:normal">TIME</tspan></text>
   </g>
   <ellipse cx="40" cy="52.001" rx="4.5328" ry="4.5357" fill="#e6e6e6" fill-opacity=".47451"/>
   <ellipse cx="40" cy="52.001" rx="5.5527" ry="5.5563" fill="none" stroke="#e6e6e6" stroke-linecap="round" stroke-width=".22671"/>
   <g transform="matrix(-.5 .86603 .86603 .5 -89.011 -102.39)">
    <g transform="translate(37.138 29.68)">
     <path transform="matrix(.26458 0 0 .26458 -5.9267 .35061)" d="m144.89 492.59-1.25 65-0.70117 36.459a8.2265 8.2317 0 0 0-6.2754 7.9883 8.2265 8.2317 0 0 0 5.9688 7.9102l-0.24219 12.643h5l-0.24219-12.641a8.2265 8.2317 0 0 0 5.9688-7.9121 8.2265 8.2317 0 0 0-6.2754-7.9844l-0.70117-36.463z" fill="#7e7e7e" fill-opacity=".49804" filter="url(#filter9995)"/>
     <g>
      <path transform="matrix(.25 0 0 7.5056 9.3827 -895.98)" d="m93.059 141.32h-5.2917l2.6458-4.5827 1.3229 2.2914z" fill="#f00"/>
      <ellipse cx="31.986" cy="159.29" rx="2.1766" ry="2.178" fill="#f00"/>
      <ellipse cx="31.986" cy="159.29" rx=".77072" ry=".7712" fill="#800000"/>
     </g>
    </g>
   </g>
   <ellipse transform="matrix(.74434 -.6678 .67065 .74177 0 0)" cx="-4.9079" cy="38.619" rx="11.756" ry="3.3335" fill="url(#linearGradient8981)"/>
   <g transform="rotate(60 159.3 99.632)">
    <g transform="matrix(.65812 0 0 .65854 44.399 85.939)">
     <path transform="scale(.26458)" d="m84.5 378.23-3.75 93.145-2.0859 51.826a12.5 12.5 0 0 0-6.7852 11.115 12.5 12.5 0 0 0 5.9102 10.604l-0.78906 19.598h15l-0.79492-19.736a12.5 12.5 0 0 0 5.6738-10.465 12.5 12.5 0 0 0-6.5371-10.984l-2.0918-51.957z" fill="#808080" fill-opacity=".49804" filter="url(#filter6390)"/>
     <g>
      <circle cx="21.267" cy="141.37" r="3.3073"/>
      <path transform="matrix(.75 0 0 10.97 -46.543 -1401.6)" d="m93.059 141.32h-5.2917l2.6458-4.5827 1.3229 2.2914z"/>
      <circle cx="21.267" cy="141.37" r="1.9844" fill="url(#radialGradient7316)"/>
     </g>
    </g>
   </g>
  </g>
  <g transform="matrix(7.6931 0 0 7.0093 131.16 7.1893)">
   <g fill-rule="evenodd">
    <path d="m3.71 6.64c0.24-0.6 4.8-4.44 5.04-4.32s35.6 38.36 35.6 38.96-4.29 4.49-4.65 4.37-35.75-38.29-35.99-39.01z" fill="#c77527"/>
    <path d="m8.75 2.31c-0.09-0.05-0.81 0.52-1.63 1.19l35.94 39.34c0.7-0.71 1.28-1.35 1.28-1.56 0-0.6-35.36-38.85-35.59-38.97z" fill="#d78422"/>
    <path d="m5.65 4.71c-0.97 0.85-1.84 1.69-1.94 1.94 0.24 0.72 35.61 38.88 35.97 39 0.16 0.05 1.1-0.7 2.07-1.56z" fill="#8a460c"/>
   </g>
   <g fill-opacity=".11" fill-rule="evenodd">
    <path d="m24.9 19.75c-1.29 0.82-2.35 2.98-2.37 7.59 4.3 4.65 8.57 9.23 11.75 12.62 1.16-2.19 2.78-4.17 3.9-5.68-3.74-4.14-8.46-9.3-13.28-14.53z" fill="#f8b692"/>
    <path d="m8.75 2.31c-0.24-0.12-4.8 3.74-5.04 4.34 0.06 0.16 2.01 2.36 4.79 5.41 0.52-3 1.42-5.52 2.5-7.35-0.65-0.69-2.23-2.39-2.25-2.4z" fill="#582205"/>
    <path d="m40.43 36.78c-0.26 2.26-0.86 4.55-2.15 7.4 0.77 0.82 1.36 1.46 1.4 1.47 0.36 0.12 4.66-3.77 4.66-4.37 0-0.12-1.65-1.99-3.91-4.5z" fill="#993d0b"/>
    <path d="m8.12 2.71c-0.1 0.08-0.2 0.13-0.31 0.22 1.85 3.65 4.26 7.03 5.5 10.97-2.75-2.92-5.05-6.18-7.38-9.44-0.06 0.05-0.1 0.11-0.15 0.16 0.61 0.96 0.94 1.78-0.16 0.41-0.04-0.07-0.08-0.13-0.12-0.19-0.11 0.1-0.21 0.19-0.32 0.28-0.15 0.14-0.33 0.28-0.47 0.41 0.43 0.59 0.94 1.18 1.41 1.75-0.12-0.21-0.2-0.43-0.25-0.63 0.47 0.54 0.83 1.15 1.16 1.78 1.06 1.22 2.37 2.4 1.72 3-0.73-0.9-1.19-1.97-1.72-3-0.1-0.11-0.19-0.23-0.28-0.34 0.36 0.62 0.52 1.29 0.21 2.03-1.06-0.8-2.07-2.77-2.93-3.87-0.11 0.11-0.17 0.2-0.22 0.28 0.37 0.51 0.74 1.01 1.09 1.53 0.8 0.91 2.09 2.34 3.56 3.97 0.49 0.07 0.6 0.34 0.54 0.56 0.26 0.29 0.5 0.57 0.78 0.87 0.06-0.02 0.12-0.02 0.18-0.03-0.19-0.12-0.43-0.38-0.65-0.87 1.22 0.03 1.33 0.74 1.03 0.9 1.08 0.34 2.16 2.35 1.47 2.19 0.56 0.62 1.24 1.35 1.84 2 0.6 0.1 0.47 0.32 0.28 0.31 1.26 1.38 2.48 2.71 3.85 4.19 0.03 0.03 0.06 0.07 0.09 0.1 1.91 1.65 3.92 3.2 5.47 5.21-0.56-0.28-1.09-0.6-1.59-0.96 0.79 0.85 1.4 1.49 2.18 2.34 1.47 1 2.76 2.18 3.63 3.78-0.09-0.06-0.16-0.13-0.25-0.19 0.61 0.66 1.16 1.31 1.75 1.94 0.01 0.02 0.05 0.02 0.06 0.03 0.17 0.09 0.33 0.22 0.44 0.35-0.15-0.12-0.29-0.23-0.44-0.35 0.51 0.55 1.05 1.14 1.53 1.66 1.24 0.87 2.29 1.93 3.03 3.25 2.36 2.52 3.92 4.19 4.91 5.22 0.52 0.28 1.02 0.59 1.53 0.9 0.13-0.09 0.29-0.2 0.47-0.34-0.22-0.13-0.43-0.26-0.66-0.38-1.8-1.3-3.47-2.9-4.37-4.96 1.59 1.96 3.64 3.36 5.72 4.75 0.57-0.49 1.1-0.99 1.65-1.54-1.97-2.04-3.89-4.13-5.56-6.43 2.04 1.95 4.82 3.19 6.44 5.56 0.11-0.12 0.2-0.24 0.28-0.34-1.24-1.21-2.36-2.54-3.28-4 0.3 0.1 0.56 0.23 0.84 0.37-0.16-0.18-0.36-0.4-0.53-0.59-0.47-0.42-0.87-0.88-1.25-1.38-0.08-0.09-0.11-0.16-0.19-0.25-0.32-0.36-0.52-0.55-0.87-0.94 0.19 0.34 0.36 0.68 0.5 1.07-3.18 0.05-4.46-3.32-6.28-5.32-0.54-0.55-1.13-1.03-1.72-1.53 1.67 1.2 3.69 2.15 5.34 3.44-0.35-0.39-0.78-0.9-1.15-1.31-4.06-2.83-7.5-6.43-10.75-10.13-0.15 0.09-0.17 0.29 0 0.69-1.24-0.34-3.54-3.83-0.82-1.97 0.61 0.39 1.99 1.59 2.94 1.97-0.58-0.63-1.01-1.12-1.59-1.75-1.96-1.36-3.95-2.66-5.75-4.22 1.58 0.67 2.97 1.63 4.31 2.69-0.9-0.97-1.63-1.78-2.5-2.72-0.01-0.01-0.03 0.01-0.03 0-1.9-1.54-3.15-4.09-5.66-4.72-0.01 0.01-0.01 0.02-0.03 0.03 2.39 1.57 4.3 3.74 6.38 5.69-2.6-1.24-5.33-2.85-6.66-5.5-1.25 1.21 3.26 3.66 2 4.31-2.72-2.27-4.43-5.48-6.56-8.25-0.96-1.54-1.78-3.13-2.66-4.72zm7.22 8.66c0.07-0.07 0.16-0.12 0.28-0.19-0.19-0.12-0.37-0.26-0.56-0.37 0.08 0.2 0.18 0.37 0.28 0.56zm9.41 9.81c0.02-0.01 0.05-0.02 0.09-0.03-0.15-0.12-0.29-0.25-0.44-0.37 0.12 0.13 0.23 0.27 0.35 0.4zm0.09-0.03c2.16 1.74 4.28 3.52 6.31 5.41-0.93-1.02-1.69-1.86-2.65-2.91-0.43-0.36-0.87-0.72-1.32-1.06-0.18-0.49-1.76-1.56-2.34-1.44zm-14.5-7.69c-0.13-0.04-0.25-0.04-0.38-0.03 0.16 0.1 0.28 0.09 0.38 0.03zm-5.03-8.15c0.27 0.36 0.52 0.75 0.78 1.12 1.18 1.36 2.88 2.5 3.78 3.97 1.33 1.99-0.31 1.26-1 0-1.02-1.25-1.87-2.63-2.78-3.97-0.31-0.36-0.57-0.72-0.78-1.12zm0.84 2c0.15 0.25 0.35 0.49 0.56 0.75-0.15-0.26-0.35-0.5-0.56-0.75zm5.44 1.9c1.3 2.33 3.73 3.86 4.69 6.41-0.38-0.08-0.73-0.18-1.03-0.34 2.66 1.23 4.65 3.74 5.68 6.47-3.44-0.72-5.31-4.11-6.9-6.91 0.41 0.12 0.8 0.26 1.18 0.44-2.08-1.15-2.42-4.16-3.62-6.07zm-0.91 2.1c1.41 1.16 0.77 1.68 0 0zm0.72 2.25c1.26 0.26 1 2.03 0 0zm1.19 0.56c1.13 0.34 0.78 2.29 0 0zm0.87 0.44c0.82 0.6-0.09 0.6 0 0zm-3.28 0.4c0.22 0.35 0.2 0.31 0 0zm8.57 0.75c1.27 0.41 3.23 3.21 0.87 1.22-0.35-0.35-0.67-0.76-0.87-1.22zm-5.63 0.29c0.44 0.16 1.33 2.49 0 0zm5.22 0.75c1.24-0.04 1.23 2.72 0.28 0.65l-0.28-0.31-0.25-0.31c0.09-0.03 0.17-0.03 0.25-0.03zm-4.16 0.15c1.12 0.23 3.04 3.32 0.85 1.38-0.38-0.39-0.69-0.86-0.85-1.38zm5.69 0.85c3.51 3.47 7.21 6.75 10.75 10.18 0.55 0.44 1.09 0.92 1.53 1.47-0.5-0.5-1.02-0.98-1.53-1.47-0.63-0.5-1.29-0.96-1.97-1.4 0.03 0.19-0.15 0.21-0.4-0.25-1.46-0.97-2.87-1.97-3.79-3.5-0.29-0.5-0.58-0.66-0.84-0.66 0.39 0.66 0.22 1.26-0.31 0.06-0.43 0.21-0.77 0.75-1 0.72-1.8-1.1-1.44-3.54-2.44-5.15zm3.44 4.43c0.1-0.05 0.2-0.06 0.31-0.06-0.15-0.26-0.38-0.5-0.72-0.66 0.11 0.2 0.21 0.38 0.31 0.57 0.03 0.07 0.07 0.09 0.1 0.15zm4.94 4.1c0.13 0.08 0.27 0.16 0.4 0.25-0.03-0.17-0.21-0.46-0.62-0.72 0.08 0.19 0.15 0.34 0.22 0.47zm-13.13-7.57c0.98 0.08 0.47 1.1 0 0zm0.88 1.38c1.4 0.09 3.18 2.48 3.15 2.84-1.09-0.9-2.1-1.9-3.15-2.84zm2.31 1.47c1.08 0.22 0.68 1.21 0 0zm2 0.4c1.23 0.09 1.45 3.36 0.15 1.04-0.25-0.29-0.49-0.57-0.75-0.85 0.22-0.14 0.42-0.2 0.6-0.19zm1.72 1.29c1.1 0.89 0.95 2.34 0.25 0.46-0.09-0.16-0.17-0.3-0.25-0.46zm0.59 0.28c0.78 0.09 2.04 0.98 2.59 1.9-0.16-0.27-0.33-0.54-0.5-0.81 1.16 0.61 3.2 2.46 2.22 3.69-0.56-0.86-1.08-1.74-1.59-2.63 0.26 0.56 0.23 1.09-0.34 1.44-0.94-1.1-1.69-2.33-2.38-3.59zm-1.28 0.97c1.47 1.04 0.47 1.24 0 0zm4.94 1.15c2.81 1.58 4.73 4.26 6.59 6.81-0.25 0.03-0.5 0.05-0.72 0.04 1.28 0.75 2.06 2.89 0.13 0.81-0.41-0.34-0.81-0.67-1.22-1 0.07-0.02 0.14-0.03 0.22-0.03-2.59-0.89-3.36-4.65-5-6.63zm5 6.63c0.26 0.09 0.53 0.19 0.84 0.22-0.26-0.16-0.56-0.24-0.84-0.22zm-7.82-5.78c1.15 0.45 2.5 2.93 0.69 0.9-0.25-0.28-0.5-0.57-0.69-0.9zm0.19 0.84c0.75 0.06 1.13 1.57 0.28 0.5zm6.22 0.84c1.47 0.54 1.05 2.03 0.19 0.25zm-3.37 0.82c0.55-0.1-0.16 0.64 0 0zm-1.04 0.5c1.15 0.78 3.1 1.93 2.91 3.43-0.99-1.12-1.9-2.33-2.91-3.43zm1.41 0.71c0.97 0.4 2.57 2.7 2.41 2.79-0.73-0.99-1.54-1.92-2.41-2.79zm5.56 0.79c1.04 0.74 0.43 1.38 0 0zm-3.34 0.31c2.08 2.06 4.29 4.03 6 6.44-2.72-1.37-3.96-4.35-6-6.44zm1.62 1.12c1.18 0.9 4.4 3.25 3.75 3.91-1.26-1.29-2.51-2.6-3.75-3.91zm2.54 0.16c1.26 0.33 0.47 1.69 0 0zm-3.57 0.12c1.08 0.68 2.37 3.21 0.63 0.94-0.23-0.3-0.44-0.61-0.63-0.94zm4.22 1.13c3.04 1.78 4.33 5.26 6.72 7.69-3.06-1.73-4.64-5.03-6.72-7.69zm-3.53 1.37c0.97 0.19 0.05 0.61 0 0zm0.97 0.04c0.86 0.1 0.1 0.67 0 0zm5.22 0.09c0.97 0.15 4.03 2.31 2.44 2.28-0.87-0.71-1.63-1.52-2.44-2.28zm-5.28 0.47c0.59 0.18-0.35 0.6 0 0zm0.75 0.47c1.21 0.04 0.41 1.51 0 0zm1.06 1.12c1.46 0.17 3.38 3.92 1.47 2.78-0.61-0.91-1.09-1.87-1.75-2.75 0.09-0.02 0.18-0.04 0.28-0.03zm1.16 0.35c1.1-0.17 3.54 2.65 1.21 1.03-0.43-0.31-0.86-0.64-1.21-1.03zm2.56 0.56c1.43 0.91 0.25 1.71 0 0zm-1.47 0.75c1.71 0.65 4.84 3.21 4.41 4.12-1.63-1.2-3.06-2.62-4.41-4.12zm4.81 1.4c1.18 0.49 1.95 2.84 0.6 0.75-0.19-0.26-0.38-0.51-0.6-0.75zm-0.72 1.25c0.77 0.43 2.99 3.02 1.03 1.29-0.39-0.39-0.75-0.81-1.03-1.29zm2.19 1.57c0.94 0.34 0.03 0.57 0 0z" fill="#582205"/>
   </g>
   <g fill="none">
    <path d="m5.67 4.73 17.57 19.25" stroke="#d88a52" stroke-linecap="round" stroke-width=".2"/>
    <path d="m5.67 4.77 3.11 3.45" stroke="#e5b18b" stroke-linecap="round" stroke-opacity=".77" stroke-width=".2"/>
    <g stroke-opacity=".93" stroke-width=".2">
     <path d="m26.34 27.33 15.37 16.77" stroke="#d8864a"/>
     <path d="m30.68 32.11 5.16 5.68" stroke="#e3a172" stroke-linecap="round"/>
     <path d="m43.05 42.89-13.12-14.43" stroke="#e09246"/>
    </g>
    <path d="m21.29 18.98 6.17 6.79" stroke="#eab581" stroke-linecap="round" stroke-opacity=".43" stroke-width=".3"/>
    <path d="m7.15 3.54 5.67 6.21" stroke="#eab581" stroke-linecap="round" stroke-opacity=".28" stroke-width=".3"/>
   </g>
   <path d="m25.59 24.4c0 0.35-0.28 0.63-0.62 0.63s-0.62-0.28-0.62-0.63c0-0.34 0.28-0.62 0.62-0.62s0.62 0.28 0.62 0.62z" fill="#576e6c" fill-rule="evenodd"/>
   <path d="m25.59 24.31c-0.4 0.16-0.72 0.35-0.97 0.59 0.1 0.07 0.22 0.13 0.34 0.13 0.35 0 0.63-0.29 0.63-0.63v-0.09z" fill="#9bb0ae" fill-opacity=".52" fill-rule="evenodd"/>
   <g fill="none">
    <g stroke="#000" stroke-opacity=".91" stroke-width=".2">
     <path d="m21.92 26.57 1.19-1.05"/>
     <path d="m22.83 27.46 0.83-0.73"/>
     <path d="m23.71 28.46 1.19-1.05"/>
     <path d="m24.63 29.35 0.82-0.73"/>
     <path d="m25.38 30.36 1.19-1.06"/>
     <path d="m26.3 31.25 0.82-0.74"/>
     <path d="m27.18 32.24 1.18-1.05"/>
     <path d="m28.09 33.13 0.82-0.73"/>
     <path d="m28.98 34.02 1.19-1.05"/>
     <path d="m29.9 34.91 0.82-0.73"/>
     <path d="m30.78 35.91 1.19-1.05"/>
     <path d="m31.69 36.8 0.82-0.73"/>
     <path d="m32.45 37.81 1.18-1.05"/>
     <path d="m33.36 38.7 0.82-0.74"/>
     <path d="m34.24 39.69 1.19-1.05"/>
     <path d="m35.15 40.58 0.83-0.73"/>
     <path d="m7.97 11.51 1.19-1.05"/>
     <path d="m8.88 12.4 0.83-0.74"/>
     <path d="m9.76 13.39 1.19-1.05"/>
     <path d="m10.68 14.28 0.82-0.73"/>
     <path d="m11.43 15.29 1.19-1.05"/>
     <path d="m12.35 16.18 0.82-0.73"/>
     <path d="m13.23 17.17 1.19-1.05"/>
     <path d="m14.14 18.07 0.82-0.74"/>
     <path d="m15.04 18.96 1.18-1.05"/>
     <path d="m15.95 19.85 0.82-0.74"/>
     <path d="m16.83 20.84 1.19-1.05"/>
     <path d="m17.74 21.73 0.83-0.73"/>
     <path d="m18.5 22.74 1.19-1.05"/>
     <path d="m19.41 23.63 0.82-0.73"/>
     <path d="m20.29 24.63 1.19-1.05"/>
     <path d="m21.21 25.52 0.82-0.74"/>
     <path d="m4.59 7.67 1.19-1.05"/>
     <path d="m5.51 8.56 0.82-0.74"/>
     <path d="m6.39 9.55 1.18-1.05"/>
     <path d="m7.3 10.44 0.82-0.73"/>
     <path d="m35.94 41.66 1.19-1.05"/>
     <path d="m36.86 42.55 0.82-0.73"/>
     <path d="m37.61 43.55 1.19-1.05"/>
     <path d="m24.27 21.3 1.19-1.06"/>
     <path d="m23.72 20.09 0.82-0.74"/>
     <path d="m22.47 19.41 1.19-1.05"/>
     <path d="m21.93 18.2 0.82-0.73"/>
     <path d="m20.81 17.51 1.18-1.05"/>
     <path d="m20.26 16.3 0.82-0.73"/>
     <path d="m19.01 15.63 1.19-1.05"/>
     <path d="m18.46 14.42 0.83-0.73"/>
     <path d="m17.2 13.84 1.19-1.05"/>
     <path d="m16.65 12.64 0.83-0.74"/>
     <path d="m15.41 11.96 1.19-1.05"/>
     <path d="m14.86 10.75 0.82-0.73"/>
     <path d="m13.74 10.06 1.19-1.05"/>
     <path d="m13.19 8.85 0.82-0.73"/>
     <path d="m11.95 8.18 1.18-1.05"/>
     <path d="m11.4 6.97 0.82-0.74"/>
     <path d="m38.22 36.36 1.18-1.05"/>
     <path d="m37.67 35.15 0.82-0.73"/>
     <path d="m36.42 34.48 1.19-1.06"/>
     <path d="m35.87 33.27 0.83-0.74"/>
     <path d="m34.75 32.58 1.19-1.05"/>
     <path d="m34.21 31.37 0.82-0.73"/>
     <path d="m32.96 30.69 1.19-1.05"/>
     <path d="m32.41 29.49 0.82-0.74"/>
     <path d="m31.15 28.91 1.19-1.05"/>
     <path d="m30.6 27.7 0.83-0.73"/>
     <path d="m29.36 27.02 1.19-1.05"/>
     <path d="m28.81 25.82 0.82-0.74"/>
     <path d="m27.69 25.13 1.19-1.05"/>
     <path d="m27.14 23.92 0.82-0.73"/>
     <path d="m25.9 23.24 1.18-1.05"/>
     <path d="m25.35 22.03 0.82-0.73"/>
     <path d="m41.6 40.2 1.18-1.05"/>
     <path d="m41.05 38.99 0.82-0.73"/>
     <path d="m39.8 38.32 1.19-1.06"/>
     <path d="m39.25 37.11 0.83-0.74"/>
     <path d="m10.25 6.21 1.18-1.05"/>
     <path d="m9.7 5 0.82-0.73"/>
     <path d="m8.58 4.31 1.18-1.05"/>
    </g>
    <path d="m3.71 6.64c0.24-0.6 4.8-4.44 5.04-4.32s35.6 38.36 35.6 38.96-4.29 4.49-4.65 4.37-35.75-38.29-35.99-39.01z" stroke="#230c05" stroke-width=".5"/>
    <path d="m25.59 24.4a0.62 0.62 0 1 1-1.24 0 0.62 0.62 0 1 1 1.24 0z" stroke="#131c1b" stroke-linecap="round" stroke-linejoin="round" stroke-width=".3"/>
   </g>
  </g>
 </g>
</svg>
